<svg width="52" height="57" viewBox="0 0 52 57" fill="none" xmlns="http://www.w3.org/2000/svg">
<path d="M47.4497 4.31361H40.9793V2.1568C40.9793 1.58478 40.752 1.03619 40.3476 0.631713C39.9431 0.227234 39.3945 0 38.8225 0C38.2504 0 37.7019 0.227234 37.2974 0.631713C36.8929 1.03619 36.6657 1.58478 36.6657 2.1568V4.31361H15.0976V2.1568C15.0976 1.58478 14.8704 1.03619 14.4659 0.631713C14.0614 0.227234 13.5128 0 12.9408 0C12.3688 0 11.8202 0.227234 11.4157 0.631713C11.0113 1.03619 10.784 1.58478 10.784 2.1568V4.31361H4.31361C3.16957 4.31361 2.07238 4.76808 1.26343 5.57703C0.454468 6.38599 0 7.48317 0 8.62721V51.7633C0 52.9073 0.454468 54.0045 1.26343 54.8135C2.07238 55.6224 3.16957 56.0769 4.31361 56.0769H47.4497C48.5937 56.0769 49.6909 55.6224 50.4999 54.8135C51.3088 54.0045 51.7633 52.9073 51.7633 51.7633V8.62721C51.7633 7.48317 51.3088 6.38599 50.4999 5.57703C49.6909 4.76808 48.5937 4.31361 47.4497 4.31361ZM10.784 8.62721V10.784C10.784 11.356 11.0113 11.9046 11.4157 12.3091C11.8202 12.7136 12.3688 12.9408 12.9408 12.9408C13.5128 12.9408 14.0614 12.7136 14.4659 12.3091C14.8704 11.9046 15.0976 11.356 15.0976 10.784V8.62721H36.6657V10.784C36.6657 11.356 36.8929 11.9046 37.2974 12.3091C37.7019 12.7136 38.2504 12.9408 38.8225 12.9408C39.3945 12.9408 39.9431 12.7136 40.3476 12.3091C40.752 11.9046 40.9793 11.356 40.9793 10.784V8.62721H47.4497V17.2544H4.31361V8.62721H10.784ZM47.4497 51.7633H4.31361V21.568H47.4497V51.7633ZM29.1168 31.2737C29.1168 31.9135 28.9271 32.539 28.5716 33.071C28.2161 33.6031 27.7109 34.0177 27.1197 34.2626C26.5285 34.5075 25.8781 34.5715 25.2505 34.4467C24.6229 34.3219 24.0465 34.0137 23.594 33.5613C23.1416 33.1088 22.8334 32.5324 22.7086 31.9048C22.5838 31.2772 22.6478 30.6267 22.8927 30.0356C23.1376 29.4444 23.5522 28.9392 24.0843 28.5837C24.6163 28.2282 25.2418 28.0384 25.8816 28.0384C26.7397 28.0384 27.5626 28.3793 28.1693 28.986C28.776 29.5927 29.1168 30.4156 29.1168 31.2737ZM40.9793 31.2737C40.9793 31.9135 40.7895 32.539 40.434 33.071C40.0785 33.6031 39.5733 34.0177 38.9821 34.2626C38.391 34.5075 37.7405 34.5715 37.1129 34.4467C36.4853 34.3219 35.9089 34.0137 35.4564 33.5613C35.004 33.1088 34.6959 32.5324 34.571 31.9048C34.4462 31.2772 34.5103 30.6267 34.7551 30.0356C35 29.4444 35.4147 28.9392 35.9467 28.5837C36.4787 28.2282 37.1042 28.0384 37.7441 28.0384C38.6021 28.0384 39.425 28.3793 40.0317 28.986C40.6384 29.5927 40.9793 30.4156 40.9793 31.2737ZM17.2544 42.0577C17.2544 42.6975 17.0647 43.323 16.7092 43.8551C16.3537 44.3871 15.8484 44.8017 15.2573 45.0466C14.6661 45.2915 14.0156 45.3555 13.3881 45.2307C12.7605 45.1059 12.184 44.7978 11.7316 44.3453C11.2791 43.8929 10.971 43.3164 10.8462 42.6888C10.7213 42.0613 10.7854 41.4108 11.0303 40.8196C11.2751 40.2285 11.6898 39.7232 12.2218 39.3677C12.7539 39.0122 13.3794 38.8225 14.0192 38.8225C14.8773 38.8225 15.7001 39.1633 16.3069 39.77C16.9136 40.3768 17.2544 41.1996 17.2544 42.0577ZM29.1168 42.0577C29.1168 42.6975 28.9271 43.323 28.5716 43.8551C28.2161 44.3871 27.7109 44.8017 27.1197 45.0466C26.5285 45.2915 25.8781 45.3555 25.2505 45.2307C24.6229 45.1059 24.0465 44.7978 23.594 44.3453C23.1416 43.8929 22.8334 43.3164 22.7086 42.6888C22.5838 42.0613 22.6478 41.4108 22.8927 40.8196C23.1376 40.2285 23.5522 39.7232 24.0843 39.3677C24.6163 39.0122 25.2418 38.8225 25.8816 38.8225C26.7397 38.8225 27.5626 39.1633 28.1693 39.77C28.776 40.3768 29.1168 41.1996 29.1168 42.0577ZM40.9793 42.0577C40.9793 42.6975 40.7895 43.323 40.434 43.8551C40.0785 44.3871 39.5733 44.8017 38.9821 45.0466C38.391 45.2915 37.7405 45.3555 37.1129 45.2307C36.4853 45.1059 35.9089 44.7978 35.4564 44.3453C35.004 43.8929 34.6959 43.3164 34.571 42.6888C34.4462 42.0613 34.5103 41.4108 34.7551 40.8196C35 40.2285 35.4147 39.7232 35.9467 39.3677C36.4787 39.0122 37.1042 38.8225 37.7441 38.8225C38.6021 38.8225 39.425 39.1633 40.0317 39.77C40.6384 40.3768 40.9793 41.1996 40.9793 42.0577Z" fill="#38A8A1"/>
</svg>
