<svg width="51" height="55" viewBox="0 0 51 55" fill="none" xmlns="http://www.w3.org/2000/svg">
<path d="M46.4319 4.22108H40.1003V2.11054C40.1003 1.55079 39.8779 1.01397 39.4821 0.618163C39.0863 0.22236 38.5495 0 37.9897 0C37.43 0 36.8931 0.22236 36.4973 0.618163C36.1015 1.01397 35.8792 1.55079 35.8792 2.11054V4.22108H14.7738V2.11054C14.7738 1.55079 14.5514 1.01397 14.1556 0.618163C13.7598 0.22236 13.223 0 12.6632 0C12.1035 0 11.5667 0.22236 11.1709 0.618163C10.7751 1.01397 10.5527 1.55079 10.5527 2.11054V4.22108H4.22108C3.10158 4.22108 2.02793 4.6658 1.23633 5.4574C0.444719 6.24901 0 7.32266 0 8.44216V50.6529C0 51.7724 0.444719 52.8461 1.23633 53.6377C2.02793 54.4293 3.10158 54.874 4.22108 54.874H46.4319C47.5514 54.874 48.625 54.4293 49.4166 53.6377C50.2082 52.8461 50.6529 51.7724 50.6529 50.6529V8.44216C50.6529 7.32266 50.2082 6.24901 49.4166 5.4574C48.625 4.6658 47.5514 4.22108 46.4319 4.22108ZM46.4319 50.6529H4.22108V8.44216H10.5527V10.5527C10.5527 11.1124 10.7751 11.6493 11.1709 12.0451C11.5667 12.4409 12.1035 12.6632 12.6632 12.6632C13.223 12.6632 13.7598 12.4409 14.1556 12.0451C14.5514 11.6493 14.7738 11.1124 14.7738 10.5527V8.44216H35.8792V10.5527C35.8792 11.1124 36.1015 11.6493 36.4973 12.0451C36.8931 12.4409 37.43 12.6632 37.9897 12.6632C38.5495 12.6632 39.0863 12.4409 39.4821 12.0451C39.8779 11.6493 40.1003 11.1124 40.1003 10.5527V8.44216H46.4319V50.6529ZM38.1533 25.7591L30.281 25.1497L27.2655 18.1586C27.1026 17.7794 26.8321 17.4563 26.4874 17.2293C26.1428 17.0023 25.7392 16.8813 25.3265 16.8813C24.9138 16.8813 24.5102 17.0023 24.1655 17.2293C23.8209 17.4563 23.5504 17.7794 23.3874 18.1586L20.372 25.1497L12.4997 25.7591C12.0807 25.7922 11.6812 25.9495 11.3522 26.211C11.0232 26.4725 10.7798 26.8263 10.6531 27.227C10.5265 27.6277 10.5223 28.0571 10.6412 28.4602C10.7601 28.8633 10.9966 29.2217 11.3204 29.4895L17.2616 34.3939L15.4518 41.7043C15.3526 42.1073 15.3744 42.5307 15.5146 42.9214C15.6548 43.3121 15.9071 43.6528 16.2399 43.9009C16.5727 44.1489 16.9713 44.2934 17.3858 44.3161C17.8002 44.3388 18.2122 44.2387 18.5701 44.0285L25.3265 40.0528L32.0828 44.0285C32.4408 44.2387 32.8527 44.3388 33.2672 44.3161C33.6817 44.2934 34.0802 44.1489 34.4131 43.9009C34.7459 43.6528 34.9982 43.3121 35.1383 42.9214C35.2785 42.5307 35.3004 42.1073 35.2012 41.7043L33.3914 34.3939L39.3325 29.4895C39.6564 29.2217 39.8929 28.8633 40.0118 28.4602C40.1306 28.0571 40.1265 27.6277 39.9998 27.227C39.8731 26.8263 39.6297 26.4725 39.3008 26.211C38.9718 25.9495 38.5722 25.7922 38.1533 25.7591ZM29.6821 31.9852C29.3751 32.2382 29.1458 32.5728 29.0207 32.9504C28.8956 33.328 28.8798 33.7333 28.9751 34.1195L29.8984 37.8446L26.3976 35.7842C26.073 35.593 25.7032 35.4922 25.3265 35.4922C24.9498 35.4922 24.58 35.593 24.2554 35.7842L20.7545 37.8446L21.6779 34.1195C21.7731 33.7333 21.7573 33.328 21.6322 32.9504C21.5071 32.5728 21.2779 32.2382 20.9708 31.9852L18.0398 29.5634L21.9681 29.26C22.3513 29.2306 22.7192 29.0971 23.0321 28.8739C23.3449 28.6508 23.591 28.3464 23.7436 27.9937L25.3265 24.3213L26.9094 27.9937C27.062 28.3464 27.308 28.6508 27.6209 28.8739C27.9338 29.0971 28.3017 29.2306 28.6849 29.26L32.6131 29.5634L29.6821 31.9852Z" fill="#38A8A1"/>
</svg>
