<svg width="33" height="33" viewBox="0 0 33 33" fill="none" xmlns="http://www.w3.org/2000/svg">
<path d="M32.8042 16.4003C32.7991 20.409 31.3282 24.2775 28.6688 27.2771C26.0094 30.2768 22.3449 32.2004 18.3656 32.6857C18.277 32.6957 18.1873 32.6869 18.1023 32.6597C18.0174 32.6325 17.9392 32.5876 17.8729 32.528C17.8066 32.4684 17.7536 32.3954 17.7176 32.3139C17.6816 32.2323 17.6632 32.144 17.6638 32.0548V20.1854H21.4489C21.6219 20.1857 21.793 20.1506 21.9518 20.082C22.1106 20.0134 22.2536 19.9129 22.372 19.7868C22.4903 19.6606 22.5814 19.5115 22.6396 19.3486C22.6979 19.1858 22.722 19.0127 22.7106 18.8401C22.6827 18.5156 22.533 18.2138 22.2916 17.9952C22.0503 17.7766 21.7351 17.6576 21.4095 17.662H17.6638V13.8769C17.6638 13.2076 17.9296 12.5658 18.4029 12.0925C18.8761 11.6193 19.5179 11.3534 20.1872 11.3534H22.7106C22.8836 11.3538 23.0547 11.3186 23.2135 11.2501C23.3723 11.1815 23.5153 11.081 23.6337 10.9549C23.752 10.8287 23.8431 10.6796 23.9014 10.5167C23.9596 10.3538 23.9838 10.1807 23.9723 10.0082C23.9444 9.68316 23.7943 9.38084 23.5522 9.1622C23.3101 8.94355 22.9942 8.82485 22.668 8.83004H20.1872C18.8487 8.83004 17.565 9.36175 16.6185 10.3082C15.6721 11.2547 15.1404 12.5384 15.1404 13.8769V17.662H11.3553C11.1823 17.6616 11.0111 17.6968 10.8523 17.7653C10.6935 17.8339 10.5505 17.9344 10.4322 18.0606C10.3139 18.1867 10.2228 18.3359 10.1645 18.4987C10.1062 18.6616 10.0821 18.8347 10.0936 19.0073C10.1215 19.3322 10.2716 19.6346 10.5137 19.8532C10.7557 20.0719 11.0717 20.1906 11.3978 20.1854H15.1404V32.058C15.1409 32.147 15.1226 32.2351 15.0867 32.3166C15.0507 32.398 14.9979 32.4709 14.9318 32.5305C14.8656 32.5901 14.7876 32.635 14.7029 32.6623C14.6182 32.6896 14.5286 32.6986 14.4401 32.6888C10.3543 32.1913 6.60426 30.1779 3.93214 27.0472C1.26003 23.9166 -0.139357 19.8968 0.0109683 15.7836C0.326394 7.2671 7.22476 0.343503 15.7476 0.012306C17.9541 -0.0731649 20.1552 0.28728 22.2193 1.07208C24.2833 1.85688 26.1678 3.04992 27.7602 4.57982C29.3525 6.10973 30.6199 7.94508 31.4866 9.9761C32.3533 12.0071 32.8014 14.1921 32.8042 16.4003Z" fill="white"/>
</svg>
