<svg width="85" height="85" viewBox="0 0 85 85" fill="none" xmlns="http://www.w3.org/2000/svg">
<path d="M42.4688 63.7031H14.1562C12.279 63.7031 10.4787 62.9574 9.15126 61.63C7.82385 60.3026 7.07813 58.5022 7.07812 56.625V28.3125C7.07812 26.4353 7.82385 24.6349 9.15126 23.3075C10.4787 21.9801 12.279 21.2344 14.1562 21.2344H70.7812C72.6585 21.2344 74.4588 21.9801 75.7862 23.3075C77.1136 24.6349 77.8594 26.4353 77.8594 28.3125V46.0078" stroke="#6CFF7B" stroke-width="7.07812" stroke-linecap="round" stroke-linejoin="round"/>
<path d="M56.625 67.2422L67.2422 77.8594L77.8594 67.2422" stroke="#6CFF7B" stroke-width="7.07812" stroke-linecap="round" stroke-linejoin="round"/>
<path d="M63.7031 42.4678H63.7389" stroke="#6CFF7B" stroke-width="7.07812" stroke-linecap="round" stroke-linejoin="round"/>
<path d="M67.2422 56.625V77.8594" stroke="#6CFF7B" stroke-width="7.07812" stroke-linecap="round" stroke-linejoin="round"/>
<path d="M21.2344 42.4678H21.2701" stroke="#6CFF7B" stroke-width="7.07812" stroke-linecap="round" stroke-linejoin="round"/>
<path d="M42.4688 49.5469C46.3779 49.5469 49.5469 46.3779 49.5469 42.4688C49.5469 38.5596 46.3779 35.3906 42.4688 35.3906C38.5596 35.3906 35.3906 38.5596 35.3906 42.4688C35.3906 46.3779 38.5596 49.5469 42.4688 49.5469Z" stroke="#6CFF7B" stroke-width="7.07812" stroke-linecap="round" stroke-linejoin="round"/>
</svg>
