<svg width="79" height="79" viewBox="0 0 79 79" fill="none" xmlns="http://www.w3.org/2000/svg">
<path d="M47.3565 70.6497C47.4802 70.9582 47.6954 71.2214 47.9731 71.404C48.2508 71.5867 48.5777 71.68 48.91 71.6715C49.2422 71.663 49.564 71.5531 49.8319 71.3564C50.0999 71.1598 50.3013 70.8859 50.4091 70.5715L71.5857 8.67075C71.69 8.38208 71.7099 8.06968 71.6431 7.77011C71.5763 7.47054 71.4256 7.19619 71.2085 6.97916C70.9915 6.76213 70.7171 6.61139 70.4176 6.54459C70.118 6.4778 69.8056 6.49769 69.5169 6.60196L7.61617 27.7785C7.30177 27.8864 7.02787 28.0878 6.83124 28.3557C6.63462 28.6237 6.52467 28.9454 6.51616 29.2777C6.50765 29.61 6.60098 29.9369 6.78363 30.2146C6.96628 30.4923 7.22951 30.7074 7.53798 30.8312L33.3734 41.1915C34.1901 41.5184 34.9322 42.0074 35.5548 42.629C36.1774 43.2505 36.6678 43.9916 36.9962 44.8078L47.3565 70.6497Z" stroke="#6CFF7B" stroke-width="6.51587" stroke-linecap="round" stroke-linejoin="round"/>
<path d="M71.1984 6.99609L35.5566 42.6346" stroke="#6CFF7B" stroke-width="6.51587" stroke-linecap="round" stroke-linejoin="round"/>
</svg>
