<svg width="81" height="81" viewBox="0 0 81 81" fill="none" xmlns="http://www.w3.org/2000/svg">
<path d="M26.9355 47.1377C38.0929 47.1377 47.1377 38.0929 47.1377 26.9355C47.1377 15.7782 38.0929 6.7334 26.9355 6.7334C15.7782 6.7334 6.7334 15.7782 6.7334 26.9355C6.7334 38.0929 15.7782 47.1377 26.9355 47.1377Z" stroke="#6CFF7B" stroke-width="6.73405" stroke-linecap="round" stroke-linejoin="round"/>
<path d="M60.9089 34.916C64.0918 36.1026 66.9241 38.0727 69.1438 40.644C71.3636 43.2153 72.8991 46.3048 73.6084 49.6268C74.3178 52.9488 74.178 56.396 73.2021 59.6497C72.2261 62.9033 70.4455 65.8584 68.0249 68.2415C65.6042 70.6247 62.6218 72.359 59.3533 73.284C56.0848 74.2091 52.6358 74.2951 49.3253 73.534C46.0147 72.7729 42.9496 71.1893 40.4132 68.9297C37.8769 66.6701 35.9513 63.8074 34.8145 60.6064" stroke="#6CFF7B" stroke-width="6.73405" stroke-linecap="round" stroke-linejoin="round"/>
<path d="M23.5693 20.2021H26.9364V33.6702" stroke="#6CFF7B" stroke-width="6.73405" stroke-linecap="round" stroke-linejoin="round"/>
<path d="M56.2621 46.7344L58.619 49.125L49.124 58.62" stroke="#6CFF7B" stroke-width="6.73405" stroke-linecap="round" stroke-linejoin="round"/>
</svg>
