<svg width="186" height="48" viewBox="0 0 186 48" fill="none" xmlns="http://www.w3.org/2000/svg">
<rect x="1.62168" y="1.62168" width="182.165" height="44.4799" stroke="#6CFF7B" stroke-width="3.24296"/>
<path d="M15.1443 34.2041H9.63035L16.7923 12.9774H23.6225L30.7845 34.2041H25.2705L20.2851 18.3256H20.1193L15.1443 34.2041ZM14.4084 25.8503H25.9338V29.7473H14.4084V25.8503ZM33.0698 34.2041V12.9774H41.8383C43.4275 12.9774 44.7991 13.2884 45.953 13.9103C47.1139 14.5252 48.0087 15.3855 48.6374 16.491C49.2662 17.5897 49.5806 18.868 49.5806 20.3259C49.5806 21.7908 49.2593 23.0725 48.6167 24.1712C47.981 25.2629 47.0724 26.1094 45.8908 26.7105C44.7093 27.3117 43.3066 27.6122 41.6828 27.6122H36.2725V23.57H40.7293C41.5032 23.57 42.1492 23.4353 42.6674 23.1658C43.1926 22.8963 43.5899 22.5198 43.8594 22.0361C44.1289 21.5455 44.2636 20.9754 44.2636 20.3259C44.2636 19.6695 44.1289 19.1029 43.8594 18.6261C43.5899 18.1425 43.1926 17.7693 42.6674 17.5068C42.1423 17.2442 41.4963 17.1129 40.7293 17.1129H38.2003V34.2041H33.0698ZM52.1096 34.2041V12.9774H60.878C62.4673 12.9774 63.8388 13.2884 64.9928 13.9103C66.1536 14.5252 67.0484 15.3855 67.6772 16.491C68.306 17.5897 68.6204 18.868 68.6204 20.3259C68.6204 21.7908 68.2991 23.0725 67.6565 24.1712C67.0208 25.2629 66.1121 26.1094 64.9306 26.7105C63.749 27.3117 62.3463 27.6122 60.7226 27.6122H55.3122V23.57H59.769C60.5429 23.57 61.189 23.4353 61.7072 23.1658C62.2323 22.8963 62.6296 22.5198 62.8991 22.0361C63.1686 21.5455 63.3033 20.9754 63.3033 20.3259C63.3033 19.6695 63.1686 19.1029 62.8991 18.6261C62.6296 18.1425 62.2323 17.7693 61.7072 17.5068C61.182 17.2442 60.536 17.1129 59.769 17.1129H57.2401V34.2041H52.1096ZM71.1493 34.2041V12.9774H79.9178C81.507 12.9774 82.8786 13.2642 84.0325 13.8377C85.1933 14.4043 86.0881 15.2196 86.7169 16.2837C87.3457 17.3409 87.6601 18.595 87.6601 20.0461C87.6601 21.5179 87.3388 22.7685 86.6962 23.7981C86.0536 24.8207 85.1415 25.6015 83.9599 26.1405C82.7784 26.6725 81.3792 26.9385 79.7623 26.9385H74.2172V22.8963H78.8087C79.5826 22.8963 80.2287 22.7962 80.7469 22.5958C81.2721 22.3885 81.6694 22.0775 81.9388 21.663C82.2083 21.2415 82.3431 20.7025 82.3431 20.0461C82.3431 19.3897 82.2083 18.8472 81.9388 18.4188C81.6694 17.9835 81.2721 17.6588 80.7469 17.4446C80.2218 17.2235 79.5757 17.1129 78.8087 17.1129H76.2798V34.2041H71.1493ZM83.0997 24.5029L88.3856 34.2041H82.7887L77.6065 24.5029H83.0997ZM110.509 23.5908C110.509 25.9263 110.06 27.9059 109.161 29.5297C108.263 31.1535 107.047 32.3868 105.513 33.2298C103.986 34.0728 102.272 34.4943 100.372 34.4943C98.4652 34.4943 96.7481 34.0694 95.2211 33.2195C93.694 32.3696 92.4814 31.1362 91.5831 29.5193C90.6917 27.8955 90.2461 25.9193 90.2461 23.5908C90.2461 21.2553 90.6917 19.2757 91.5831 17.6519C92.4814 16.0281 93.694 14.7947 95.2211 13.9517C96.7481 13.1087 98.4652 12.6872 100.372 12.6872C102.272 12.6872 103.986 13.1087 105.513 13.9517C107.047 14.7947 108.263 16.0281 109.161 17.6519C110.06 19.2757 110.509 21.2553 110.509 23.5908ZM105.264 23.5908C105.264 22.2088 105.067 21.0411 104.674 20.0875C104.287 19.134 103.727 18.4119 102.994 17.9213C102.269 17.4308 101.395 17.1855 100.372 17.1855C99.3565 17.1855 98.4824 17.4308 97.75 17.9213C97.0176 18.4119 96.4544 19.134 96.0606 20.0875C95.6736 21.0411 95.4802 22.2088 95.4802 23.5908C95.4802 24.9727 95.6736 26.1405 96.0606 27.094C96.4544 28.0475 97.0176 28.7696 97.75 29.2602C98.4824 29.7508 99.3565 29.9961 100.372 29.9961C101.395 29.9961 102.269 29.7508 102.994 29.2602C103.727 28.7696 104.287 28.0475 104.674 27.094C105.067 26.1405 105.264 24.9727 105.264 23.5908ZM117.07 12.9774L121.817 28.5243H121.993L126.74 12.9774H132.482L125.32 34.2041H118.49L111.328 12.9774H117.07ZM134.767 34.2041V12.9774H149.568V17.144H139.898V21.4971H148.811V25.6741H139.898V30.0375H149.568V34.2041H134.767ZM160.627 34.2041H152.781V12.9774H160.616C162.779 12.9774 164.641 13.4024 166.203 14.2523C167.771 15.0953 168.981 16.3114 169.83 17.9006C170.68 19.4829 171.105 21.3762 171.105 23.5804C171.105 25.7915 170.68 27.6917 169.83 29.2809C168.987 30.8702 167.782 32.0897 166.213 32.9396C164.645 33.7826 162.783 34.2041 160.627 34.2041ZM157.911 29.8302H160.43C161.618 29.8302 162.624 29.6299 163.446 29.2291C164.275 28.8214 164.9 28.1616 165.322 27.2495C165.75 26.3305 165.964 25.1075 165.964 23.5804C165.964 22.0534 165.75 20.8372 165.322 19.9321C164.893 19.02 164.261 18.3636 163.425 17.9628C162.596 17.5551 161.573 17.3513 160.357 17.3513H157.911V29.8302Z" fill="#6CFF7B"/>
</svg>
