<svg width="758" height="501" viewBox="0 0 758 501" fill="none" xmlns="http://www.w3.org/2000/svg">
<path d="M270.761 165.563C277.341 171.809 290.713 179.683 311.402 180.046C340.961 176.635 363.131 176.635 374.216 182.603C383.596 182.603 406.619 176.919 437.315 196.247C453.914 207.843 475.875 222.68 484.78 228.649L508.94 222.396L504.394 209.89L505.052 209.642C512.762 231.131 521.311 256.248 528.854 280.913C537.493 309.159 544.773 336.675 548.022 357.452L546.071 358.069L544.2 341.789L515.25 348.242C511.555 353.812 499.962 366.374 483.154 372.064C483.485 373.225 490.103 404.82 464.461 399.03C454.271 395.192 450.068 393.35 449.241 392.909C448.414 402.229 442.755 419.677 426.741 414.913C421.05 412.795 413.781 408.075 410.859 405.979C408.928 414.031 400.337 428.611 381.412 422.523C375.72 418.95 373.415 417.063 372.973 416.566C369.113 421.971 357.323 431.158 341.045 424.673C335.619 420.438 333.159 417.504 332.607 416.566C328.208 419.677 316.72 424.402 305.965 418.419C302.048 415.713 299.942 410.823 299.377 408.715V407.735C295.43 408.092 285.523 407.237 277.475 400.969C273.116 395.186 271.69 390.738 272.043 384.781C271.764 384.989 263.731 386.84 254.014 381.478C245.975 377.043 247.199 363.69 248.816 357.569C244.08 357.626 233.397 355.94 228.545 348.732C226.813 341.975 227.506 336.084 229.931 320.664C230.797 319.971 215.299 289.072 209.125 279.678C204.186 272.162 192.93 255.609 187.919 248.272L175.473 265.035C186.145 245.189 206.968 222.3 229.602 201.101C243.363 188.212 257.73 176.006 270.761 165.563Z" fill="#003F35"/>
<path d="M691.321 137.51L692.061 139.516L508.264 207.411C515.312 224.008 525.284 250.117 533.392 277.139C541.404 303.84 547.681 331.695 547.384 352.163C548.059 351.94 548.844 351.683 549.729 351.394C553.106 350.291 557.988 348.718 564.023 346.784C576.097 342.916 592.803 337.6 611.36 331.712C648.473 319.935 692.995 305.865 722.673 296.502L723.316 298.542L723.96 300.582C694.284 309.945 649.763 324.014 612.653 335.79C594.098 341.678 577.396 346.992 565.328 350.858C559.294 352.792 554.422 354.362 551.057 355.46C549.374 356.01 548.074 356.44 547.196 356.737C546.756 356.886 546.433 356.998 546.226 357.073C546.12 357.112 546.066 357.133 546.048 357.14C546.058 357.136 546.088 357.122 546.127 357.102C546.15 357.091 546.238 357.047 546.345 356.975C546.404 356.934 546.553 356.816 546.639 356.737C546.764 356.604 547.029 356.184 547.179 355.819L547.236 355.667L543.011 355.097C543.223 350.918 543.111 346.349 542.726 341.477C538.479 342.263 532.87 343.366 527.955 344.471C525.104 345.111 522.519 345.746 520.578 346.312C519.603 346.596 518.833 346.851 518.288 347.069C518.068 347.157 517.909 347.23 517.802 347.285C513.721 353.033 507.311 358.266 501.071 362.451C495.51 366.18 489.942 369.169 485.976 371.033C486.67 374.095 487.119 377.533 487.054 380.91C486.977 384.926 486.171 389.062 483.984 392.354C481.729 395.747 478.137 398.038 473.008 398.467C467.992 398.886 461.572 397.527 453.431 393.924L452.985 393.727L452.668 393.354C452.37 393.004 452.098 392.705 451.855 392.449C451.857 392.46 451.859 392.471 451.861 392.481L451.909 392.749L451.889 393.02C451.528 397.805 449.773 404.684 445.438 409.464C443.231 411.897 440.337 413.799 436.655 414.54C432.987 415.278 428.721 414.826 423.813 412.878L423.713 412.837L423.616 412.787C421.99 411.942 418.147 409.47 413.104 405.787C411.058 411.118 407.268 417.232 401.427 420.618C397.9 422.663 393.674 423.679 388.795 422.941C384.401 422.278 379.589 420.21 374.343 416.384C370.907 420.052 365.514 424.028 358.996 425.524C351.355 427.276 342.472 425.544 333.868 416.661C333.685 416.471 333.546 416.256 333.447 416.028C325.877 420.215 316.331 421.7 305.241 416.886L305.03 416.795L304.843 416.66C300.27 413.368 298.735 409.513 298.615 406.533C295.378 406.654 291.251 406.265 287.091 404.844C281.574 402.958 275.918 399.225 272.312 392.415L272.235 392.27L272.18 392.113C271.031 388.793 270.84 385.899 271.088 383.668C268.942 383.961 266.417 384.068 263.828 383.765C259.584 383.267 254.926 381.637 251.613 377.655C247.607 372.84 246.755 367.221 246.905 362.721C246.998 359.956 247.482 357.483 247.874 355.831C247.723 355.814 247.561 355.796 247.39 355.778C245.114 355.546 241.31 355.356 237.882 354.496C234.497 353.648 230.698 351.972 229.07 348.206C228.691 347.328 228.347 346.583 228.032 345.905C227.721 345.237 227.426 344.605 227.168 344.005C226.636 342.762 226.236 341.576 226.027 340.044C225.634 337.153 225.955 333.119 226.868 324.942L226.881 324.829L226.906 324.718C227.517 321.954 228.237 319.999 228.944 318.652C229.175 318.214 229.413 317.827 229.653 317.49C226.25 310.746 221.321 301.11 216.785 292.529C214.357 287.936 212.049 283.657 210.15 280.287C208.207 276.839 206.799 274.535 206.138 273.731C203.139 270.077 194.243 257.237 189.093 249.707C184.187 255.757 180.411 260.77 178.244 264.263L176.937 266.369L175.045 264.769L43.4606 153.495L44.8418 151.861L46.2228 150.228L175.956 259.936C183.134 249.333 200.248 229.492 218.978 208.708C238.414 187.14 259.771 164.365 274.058 149.395L152.223 25.7389L153.746 24.2372L155.27 22.7358L278.56 147.869L280.017 149.348L278.582 150.849C276.286 153.25 273.786 155.879 271.122 158.69C271.265 158.813 271.396 158.956 271.506 159.121C275.022 164.368 288.922 175.556 315.011 173.636L315.011 173.636C333.203 172.305 354.473 168.951 379.371 178.402C385.069 177.043 390.161 176.423 394.899 176.386C404.443 176.312 412.373 178.611 420.684 181.733C427.52 184.301 440.084 191.966 452.805 200.322C465.212 208.471 478.007 217.441 486.313 223.437L508.158 218.353C506.476 214.184 504.894 210.38 503.451 207.03L502.56 204.959L504.675 204.178L690.579 135.504L691.321 137.51ZM346.437 373.817C344.227 371.771 340.611 371.993 337.477 373.354C337.227 373.462 336.967 373.517 336.71 373.527C336.515 373.836 336.317 374.145 336.112 374.452C333.435 378.474 329.805 382.6 325.852 386.526C318.218 394.109 309.186 401.134 302.937 405.475C302.73 406.865 303.039 410.003 307.166 413.056C318.006 417.68 326.894 415.472 333.734 410.84C340.649 406.158 345.487 398.963 347.828 393.706C350.552 381.227 348.676 375.89 346.437 373.817ZM350.641 397.709C347.922 402.931 343.329 409.214 337.018 413.761C344.618 421.565 351.967 422.747 358.04 421.354C363.372 420.131 367.941 416.864 370.943 413.752C360.921 405.835 354.142 400.477 350.641 397.709ZM330.29 342.94C326.628 342.421 322.796 343.164 321.026 343.691C320.503 344.414 319.805 345.229 318.999 346.096C317.833 347.35 316.356 348.809 314.655 350.408C311.251 353.609 306.896 357.426 302.226 361.388C292.998 369.216 282.482 377.656 275.51 383.122C275.186 384.557 275.018 387.134 276.169 390.554C279.166 396.12 283.8 399.199 288.475 400.796C292.973 402.333 297.433 402.467 300.271 402.117C306.375 397.896 315.329 390.95 322.838 383.491C326.679 379.675 330.092 375.775 332.551 372.081C335.042 368.339 336.393 365.045 336.462 362.395L336.468 362.19L336.512 361.99C337.178 358.977 338.032 355.19 337.464 351.6C336.938 348.281 335.184 345.052 330.29 342.94ZM372.121 180.434C350.769 173.866 332.352 176.656 315.324 177.902L315.325 177.903C288.342 179.889 272.917 168.558 268.165 161.814C254.724 176.035 237.813 194.199 222.156 211.572C210.768 224.209 200.104 236.361 191.919 246.258C196.957 253.641 206.449 267.366 209.445 271.016C210.394 272.172 211.996 274.848 213.878 278.186C215.803 281.605 218.132 285.923 220.567 290.529C225.256 299.398 230.358 309.38 233.776 316.161C235.17 316.507 237.128 316.299 239.644 315.406C242.501 314.393 245.67 312.647 248.759 310.637C254.924 306.626 260.428 301.793 261.949 300.448C265.589 297.226 276.303 292.887 288.552 297.902C294.304 300.258 296.052 305.862 296.202 311.04C296.275 313.589 295.975 316.206 295.496 318.622C302.456 316.52 307.48 316.099 311.416 316.718C315.463 317.355 318.142 319.059 320.366 320.69C322.166 321.858 323.207 323.633 323.766 325.507C324.33 327.398 324.445 329.508 324.333 331.543C324.194 334.052 323.699 336.627 323.106 338.86C325.427 338.489 328.338 338.297 331.214 338.753L331.466 338.792L331.701 338.89C338.229 341.606 340.939 346.185 341.69 350.932C342.392 355.365 341.366 359.862 340.73 362.73C340.65 364.546 340.182 366.416 339.431 368.301C342.665 367.685 346.426 367.977 349.343 370.678C353.288 374.331 354.69 381.515 352.239 393.52C355.472 396.076 363.2 402.185 375.366 411.795L375.878 412.191C381.14 416.223 385.648 418.139 389.435 418.711C393.306 419.296 396.555 418.497 399.281 416.917C404.381 413.96 407.811 408.151 409.522 403.114C393.793 391.146 369.268 369.417 358.787 346.078C358.303 345 358.785 343.734 359.862 343.25C360.94 342.767 362.205 343.248 362.689 344.325C372.962 367.199 397.701 388.898 413.298 400.608C419.347 405.15 423.865 408.071 425.492 408.939C429.777 410.624 433.158 410.88 435.812 410.346C438.471 409.811 440.583 408.448 442.268 406.59C445.654 402.857 447.238 397.195 447.6 392.938C447.466 392.079 447.386 391.038 447.517 390.098C447.544 389.903 447.584 389.684 447.645 389.455C440.264 383.361 429.359 373.477 418.708 362.025C407.284 349.742 396.019 335.515 389.771 322.144C389.271 321.074 389.734 319.801 390.804 319.301C391.874 318.801 393.147 319.263 393.647 320.333C399.61 333.094 410.513 346.932 421.84 359.111C432.91 371.013 444.259 381.197 451.481 387.066C452.18 387.246 452.798 387.621 453.299 387.993C454 388.515 454.76 389.25 455.596 390.2C463.197 393.511 468.719 394.532 472.652 394.203C476.546 393.878 478.925 392.237 480.421 389.986C481.983 387.635 482.708 384.414 482.777 380.827C482.842 377.408 482.307 373.841 481.509 370.76C478.207 366.242 470.241 355.675 462.906 346.997C456.141 338.994 430.013 304.014 413.677 281.978C411.1 279.178 409.18 276.463 407.94 274.235L379.446 237.307C365.775 241.722 350.163 239.846 341.133 237.42C335.057 247.552 324.438 252.032 322.541 253.243L322.292 253.402L322.01 253.488C299.762 260.213 287.675 250.318 284.125 244.754C282.427 242.092 282.712 239.172 283.496 236.894C284.278 234.621 285.651 232.666 286.703 231.519L286.769 231.447L286.84 231.382C292.274 226.441 303.509 216.091 306.115 213.229C312.936 203.637 319.754 197.659 325.589 194.095C331.193 190.673 335.994 189.419 339.036 189.456C342.038 188.727 349.947 186.914 360.162 184.872C364.436 183.085 368.404 181.617 372.121 180.434ZM317.863 324.16C315.862 322.691 313.833 321.43 310.751 320.945C307.681 320.462 303.365 320.722 296.812 322.693C295.678 323.73 294.411 324.874 293.038 326.089C287.048 331.389 279.018 338.131 271.337 343.804C267.498 346.64 263.718 349.23 260.305 351.243C257.503 352.896 254.828 354.23 252.511 354.957C252.204 356.218 251.305 359.132 251.18 362.864C251.051 366.753 251.801 371.192 254.901 374.919C257.274 377.77 260.734 379.096 264.327 379.517C267.925 379.938 271.416 379.417 273.463 378.827L276.908 377.833C283.613 372.521 292.32 365.48 300.098 358.881C304.751 354.934 309.058 351.159 312.403 348.014C314.076 346.441 315.495 345.038 316.591 343.859C316.771 343.665 316.94 343.477 317.099 343.299L317.938 341.046C318.836 338.633 319.867 334.826 320.061 331.307C320.158 329.549 320.039 327.978 319.667 326.73C319.3 325.501 318.73 324.71 317.993 324.248L317.927 324.206L317.863 324.16ZM286.932 301.861C276.279 297.499 267.278 301.445 264.784 303.651C263.238 305.02 257.538 310.03 251.092 314.223C247.875 316.316 244.386 318.264 241.074 319.439C238.376 320.396 235.486 320.95 232.893 320.351C232.842 320.438 232.788 320.535 232.731 320.642C232.256 321.547 231.655 323.087 231.107 325.536C230.183 333.817 229.962 337.23 230.266 339.469C230.407 340.508 230.669 341.312 231.101 342.321C231.326 342.847 231.589 343.407 231.912 344.102C232.23 344.787 232.594 345.576 232.997 346.508C233.794 348.353 235.845 349.575 238.922 350.347C241.823 351.074 244.942 351.245 247.483 351.491C248.212 351.339 249.469 351.112 250.456 351.091C252.342 350.639 254.962 349.428 258.132 347.558C261.371 345.647 265.022 343.151 268.796 340.363C276.173 334.915 283.913 328.432 289.801 323.238C290.939 320.08 292.048 315.424 291.925 311.163C291.794 306.637 290.341 303.257 286.932 301.861ZM419.179 185.738C411.07 182.692 403.711 180.595 394.932 180.664C386.135 180.732 375.739 182.977 361.62 188.9L361.421 188.983L361.211 189.024C350.606 191.141 342.485 193.013 339.773 193.679L339.475 193.752L339.169 193.739C337.277 193.655 333.178 194.473 327.819 197.746C322.513 200.987 316.076 206.575 309.522 215.822L309.451 215.923L309.368 216.015C306.726 218.956 295.229 229.534 289.811 234.461C289.071 235.281 288.083 236.714 287.542 238.286C286.992 239.884 287 241.304 287.732 242.452C290.249 246.398 300.289 255.482 320.519 249.466C325.094 246.732 344.245 238.572 340.685 216.339L344.909 215.663C346.049 222.78 345.118 228.671 343.105 233.514C352.089 235.779 366.996 237.283 379.478 232.777C385.099 230.748 390.173 227.522 394.033 222.646C394.767 221.72 396.112 221.563 397.038 222.296C397.964 223.03 398.121 224.375 397.388 225.301C393.591 230.097 388.811 233.449 383.627 235.724L411.425 271.748L411.438 271.765L411.451 271.783C413.116 274.036 414.987 276.561 417.006 279.284C424.246 287.059 437.166 295.6 455.165 294.288C479.832 292.489 489.859 281.278 491.76 276.7C492.213 275.609 493.465 275.091 494.556 275.544C495.646 275.997 496.164 277.248 495.711 278.339C493.017 284.83 481.246 296.676 455.477 298.555C443.884 299.4 434.224 296.501 426.619 292.223C442.138 313.062 460.698 337.756 466.174 344.235C473.061 352.383 480.47 362.143 484.169 367.156C487.946 365.38 493.319 362.498 498.688 358.898C504.878 354.747 510.881 349.762 514.497 344.551L514.558 344.463L514.629 344.38C514.971 343.98 515.397 343.722 515.668 343.573C515.982 343.4 516.337 343.241 516.701 343.096C517.43 342.804 518.35 342.505 519.38 342.205C521.449 341.601 524.136 340.944 527.017 340.297C532.148 339.144 538.002 337.995 542.328 337.198C540.456 319.694 535.441 298.849 529.295 278.368C523.159 257.92 515.943 237.99 509.763 222.372L486.336 227.825L485.387 228.045L484.597 227.473C476.367 221.515 463.199 212.266 450.457 203.897C437.628 195.47 425.481 188.105 419.179 185.738Z" fill="#82FB8E"/>
</svg>
