<svg width="35" height="25" viewBox="0 0 35 25" fill="none" xmlns="http://www.w3.org/2000/svg">
<path d="M32.4759 0H2.49815C1.8356 0 1.20018 0.263197 0.731691 0.731691C0.263197 1.20018 0 1.8356 0 2.49815V22.4833C0 23.1459 0.263197 23.7813 0.731691 24.2498C1.20018 24.7183 1.8356 24.9815 2.49815 24.9815H32.4759C33.1385 24.9815 33.7739 24.7183 34.2424 24.2498C34.7109 23.7813 34.9741 23.1459 34.9741 22.4833V2.49815C34.9741 1.8356 34.7109 1.20018 34.2424 0.731691C33.7739 0.263197 33.1385 0 32.4759 0ZM32.4759 2.49815V6.24537H2.49815V2.49815H32.4759ZM32.4759 22.4833H2.49815V8.74352H32.4759V22.4833ZM29.9778 18.7361C29.9778 19.0674 29.8462 19.3851 29.612 19.6194C29.3777 19.8536 29.06 19.9852 28.7287 19.9852H23.7324C23.4011 19.9852 23.0834 19.8536 22.8492 19.6194C22.6149 19.3851 22.4833 19.0674 22.4833 18.7361C22.4833 18.4048 22.6149 18.0871 22.8492 17.8529C23.0834 17.6186 23.4011 17.487 23.7324 17.487H28.7287C29.06 17.487 29.3777 17.6186 29.612 17.8529C29.8462 18.0871 29.9778 18.4048 29.9778 18.7361ZM19.9852 18.7361C19.9852 19.0674 19.8536 19.3851 19.6194 19.6194C19.3851 19.8536 19.0674 19.9852 18.7361 19.9852H16.238C15.9067 19.9852 15.589 19.8536 15.3547 19.6194C15.1205 19.3851 14.9889 19.0674 14.9889 18.7361C14.9889 18.4048 15.1205 18.0871 15.3547 17.8529C15.589 17.6186 15.9067 17.487 16.238 17.487H18.7361C19.0674 17.487 19.3851 17.6186 19.6194 17.8529C19.8536 18.0871 19.9852 18.4048 19.9852 18.7361Z" fill="#82FB8E" fill-opacity="0.33"/>
</svg>
