<svg width="35" height="35" viewBox="0 0 35 35" fill="none" xmlns="http://www.w3.org/2000/svg">
<path d="M1.57836 19.9592C0.894085 16.2658 1.55063 12.4494 3.42982 9.19694C5.30901 5.9445 8.28743 3.46962 11.829 2.21777V14.0454L1.57836 19.9592Z" stroke="#82FB8E" stroke-opacity="0.33" stroke-width="2.62836" stroke-linecap="round" stroke-linejoin="round"/>
<path d="M17.0868 17.1536V1.31445C19.8498 1.31487 22.5642 2.04119 24.9581 3.42069C27.3521 4.80019 29.3416 6.78445 30.7275 9.17475C32.1133 11.5651 32.8468 14.2775 32.8546 17.0405C32.8623 19.8035 32.144 22.52 30.7715 24.918C29.3991 27.316 27.4207 29.3114 25.0345 30.7043C22.6483 32.0972 19.938 32.8387 17.1751 32.8546C14.4121 32.8705 11.6935 32.1602 9.29145 30.7948C6.88939 29.4294 4.8882 27.457 3.48828 25.0749L17.0868 17.1536Z" stroke="#82FB8E" stroke-opacity="0.33" stroke-width="2.62836" stroke-linecap="round" stroke-linejoin="round"/>
</svg>
