<svg width="64" height="64" viewBox="0 0 64 64" fill="none" xmlns="http://www.w3.org/2000/svg">
<path d="M28.9463 0.00830078C29.2657 -0.0180526 29.5874 0.0188092 29.8926 0.116699C30.1978 0.214598 30.4811 0.371365 30.7256 0.578613C30.9701 0.785852 31.1708 1.03968 31.3174 1.32471C31.4639 1.60965 31.5537 1.92042 31.5801 2.23975C31.6064 2.55909 31.5695 2.88091 31.4717 3.18604C31.3738 3.49125 31.216 3.77452 31.0088 4.01904C30.8016 4.26345 30.5486 4.46527 30.2637 4.61182C29.9786 4.7584 29.6671 4.84718 29.3477 4.87354C24.2624 5.3105 19.4074 7.19012 15.3545 10.2925C11.3017 13.3948 8.21915 17.5905 6.46973 22.3853C4.72031 27.1801 4.37672 32.3754 5.47949 37.3589C6.58227 42.3423 9.08623 46.907 12.6953 50.5161C16.3044 54.1251 20.8691 56.6282 25.8525 57.731C30.8359 58.8337 36.0304 58.4901 40.8252 56.7407C45.6201 54.9913 49.8156 51.9089 52.918 47.856C56.0203 43.803 57.901 38.9481 58.3379 33.8628C58.3912 33.2178 58.6987 32.6201 59.1924 32.2017C59.6861 31.7833 60.3258 31.5782 60.9707 31.6313C61.6159 31.6846 62.2143 31.992 62.6328 32.4858C63.0511 32.9795 63.2562 33.6193 63.2031 34.2642C62.6863 40.2725 60.4637 46.009 56.7979 50.7974C53.132 55.5855 48.1749 59.2268 42.5098 61.2935C36.8444 63.3602 30.7064 63.7665 24.8184 62.4634C18.9304 61.1603 13.5366 58.2022 9.27246 53.938C5.00843 49.6738 2.0511 44.28 0.748047 38.3921C-0.554912 32.5043 -0.149567 26.3668 1.91699 20.7017C3.98369 15.0363 7.62571 10.0785 12.4141 6.4126C17.2023 2.74683 22.9381 0.525139 28.9463 0.00830078ZM31.5801 12.1714C32.2251 12.1715 32.8437 12.4272 33.2998 12.8833C33.756 13.3395 34.0127 13.9589 34.0127 14.604V29.1987H48.6074C49.2526 29.1987 49.8719 29.4554 50.3281 29.9116C50.7841 30.3678 51.04 30.9864 51.04 31.6313C51.04 32.2763 50.784 32.8949 50.3281 33.3511C49.8719 33.8073 49.2526 34.064 48.6074 34.064H31.5801C30.9349 34.064 30.3156 33.8073 29.8594 33.3511C29.4034 32.8949 29.1475 32.2763 29.1475 31.6313V14.604C29.1475 13.9589 29.4032 13.3395 29.8594 12.8833C30.3156 12.4271 30.9349 12.1714 31.5801 12.1714ZM58.1582 18.5298C58.8247 18.2538 59.5581 18.1821 60.2656 18.3228C60.9733 18.4635 61.6235 18.8107 62.1338 19.3208C62.644 19.831 62.992 20.4813 63.1328 21.189C63.2736 21.8968 63.201 22.6306 62.9248 23.2974C62.6486 23.9641 62.1811 24.5341 61.5811 24.9351C60.981 25.3359 60.2753 25.5503 59.5537 25.5503C58.5861 25.5502 57.6578 25.1652 56.9736 24.481C56.2896 23.7967 55.9053 22.8684 55.9053 21.9009C55.9053 21.1793 56.1196 20.4735 56.5205 19.8735C56.9214 19.2737 57.4916 18.8059 58.1582 18.5298ZM50.8604 7.5835C51.527 7.30742 52.261 7.23569 52.9688 7.37646C53.6763 7.51733 54.3267 7.86435 54.8369 8.37451C55.3471 8.88474 55.6942 9.53502 55.835 10.2427C55.9757 10.9504 55.9041 11.6844 55.6279 12.3511C55.3518 13.0178 54.8833 13.5878 54.2832 13.9888C53.6833 14.3895 52.9782 14.6039 52.2568 14.604C51.2892 14.604 50.361 14.2189 49.6768 13.5347C48.9925 12.8504 48.6074 11.9223 48.6074 10.9546C48.6074 10.233 48.8217 9.52726 49.2227 8.92725C49.6236 8.32732 50.1937 7.85963 50.8604 7.5835ZM39.9141 0.285645C40.5806 0.00968135 41.3139 -0.0620792 42.0215 0.0786133C42.7291 0.219373 43.3794 0.566545 43.8896 1.07666C44.3999 1.58687 44.7478 2.23716 44.8887 2.94482C45.0295 3.65262 44.9568 4.38649 44.6807 5.05322C44.4045 5.71996 43.937 6.28998 43.3369 6.69092C42.7369 7.0918 42.0312 7.30615 41.3096 7.30615C40.342 7.30606 39.4137 6.92102 38.7295 6.23682C38.0454 5.55256 37.6611 4.62431 37.6611 3.65674C37.6612 2.93518 37.8755 2.22936 38.2764 1.62939C38.6773 1.02958 39.2475 0.561743 39.9141 0.285645Z" fill="#82FB8E" fill-opacity="0.33"/>
</svg>
