<svg width="50" height="37" viewBox="0 0 50 37" fill="none" xmlns="http://www.w3.org/2000/svg">
<path d="M23.2022 10.6178C21.7409 10.9477 20.4103 11.7035 19.3786 12.7896C18.3469 13.8757 17.6604 15.2434 17.406 16.7196C17.1515 18.1959 17.3406 19.7145 17.9492 21.0833C18.5578 22.4521 19.5587 23.6097 20.8252 24.4097C22.0917 25.2097 23.5671 25.6162 25.0646 25.5777C26.5621 25.5392 28.0146 25.0576 29.2384 24.1936C30.4622 23.3296 31.4023 22.1222 31.9398 20.7239C32.4774 19.3256 32.5882 17.7994 32.2583 16.3381C31.816 14.3786 30.6133 12.6751 28.915 11.6024C27.2166 10.5296 25.1617 10.1754 23.2022 10.6178ZM25.8708 22.439C24.9941 22.6369 24.0783 22.5704 23.2394 22.2479C22.4004 21.9254 21.6759 21.3613 21.1576 20.627C20.6392 19.8928 20.3502 19.0213 20.3271 18.1227C20.304 17.2242 20.5479 16.339 21.0279 15.5791C21.5079 14.8192 22.2025 14.2187 23.0238 13.8535C23.845 13.4883 24.7562 13.3749 25.6419 13.5276C26.5277 13.6802 27.3483 14.0921 28 14.7111C28.6516 15.3302 29.1051 16.1285 29.303 17.0053C29.5685 18.181 29.356 19.414 28.7123 20.433C28.0686 21.452 27.0465 22.1736 25.8708 22.439ZM42.5549 0.0370424L1.18077 9.37735C0.788877 9.46583 0.448176 9.70636 0.233622 10.046C0.0190683 10.3857 -0.051764 10.7967 0.0367076 11.1886L5.37403 34.831C5.4625 35.2229 5.70303 35.5636 6.0427 35.7781C6.38237 35.9927 6.79336 36.0635 7.18526 35.975L48.5594 26.6347C48.9513 26.5462 49.292 26.3057 49.5066 25.966C49.7211 25.6264 49.792 25.2154 49.7035 24.8235L44.3662 1.18111C44.2777 0.789211 44.0372 0.448512 43.6975 0.233957C43.3578 0.0194033 42.9468 -0.0514294 42.5549 0.0370424ZM39.3311 25.6121L15.0792 31.087C14.2043 29.5212 12.9516 28.1991 11.4351 27.2412C9.91856 26.2833 8.18649 25.72 6.39663 25.6027L4.9247 19.0825C6.49056 18.2077 7.81266 16.9549 8.77056 15.4384C9.72847 13.9219 10.2917 12.1898 10.4091 10.4L34.661 4.92503C35.5359 6.4909 36.7886 7.813 38.3051 8.7709C39.8216 9.7288 41.5537 10.2921 43.3436 10.4094L44.8155 16.9295C43.2496 17.8044 41.9275 19.0572 40.9696 20.5737C40.0117 22.0902 39.4485 23.8223 39.3311 25.6121ZM42.6355 7.27309C40.6911 6.9111 38.9595 5.81733 37.7973 4.21701L41.7445 3.32592L42.6355 7.27309ZM7.27276 11.108C6.91076 13.0524 5.81699 14.784 4.21667 15.9462L3.32559 11.9991L7.27276 11.108ZM7.10466 28.739C9.04908 29.101 10.7807 30.1947 11.9429 31.7951L7.99574 32.6862L7.10466 28.739ZM42.4674 24.9041C42.8294 22.9597 43.9232 21.2281 45.5235 20.0658L46.4146 24.013L42.4674 24.9041Z" fill="#82FB8E" fill-opacity="0.33"/>
</svg>
