<svg width="39" height="41" viewBox="0 0 39 41" fill="none" xmlns="http://www.w3.org/2000/svg">
<path d="M34.2968 40.0525C34.166 40.4015 33.9019 40.6841 33.5626 40.8383C33.2234 40.9925 32.8367 41.0057 32.4878 40.8748L0.911668 29.0339C0.56273 28.903 0.280063 28.6389 0.125852 28.2997C-0.028359 27.9604 -0.0414825 27.5738 0.089368 27.2248L9.95682 0.911376C10.0877 0.562438 10.3518 0.279771 10.691 0.12556C11.0303 -0.0286507 11.4169 -0.0417747 11.7659 0.0890758C12.1148 0.219926 12.3975 0.484033 12.5517 0.823295C12.7059 1.16256 12.719 1.54918 12.5882 1.89812L5.88508 19.7732L17.2691 14.5972C17.4372 14.5207 17.6187 14.4781 17.8032 14.4718C17.9878 14.4654 18.1718 14.4956 18.3447 14.5604C18.5176 14.6252 18.676 14.7235 18.8109 14.8496C18.9458 14.9757 19.0545 15.1272 19.1308 15.2953L21.8376 21.2533L33.7524 15.8374L30.3498 14.5614C30.0008 14.4306 29.7182 14.1664 29.5639 13.8272C29.4097 13.4879 29.3966 13.1013 29.5275 12.7524C29.6583 12.4034 29.9224 12.1208 30.2617 11.9665C30.6009 11.8123 30.9876 11.7992 31.3365 11.9301L37.9149 14.3969C38.2638 14.5278 38.5465 14.7919 38.7007 15.1311C38.8549 15.4704 38.868 15.857 38.7372 16.206L36.2703 22.7843C36.1395 23.1333 35.8754 23.4159 35.5361 23.5701C35.1968 23.7244 34.8102 23.7375 34.4613 23.6066C34.1123 23.4758 33.8297 23.2117 33.6754 22.8724C33.5212 22.5331 33.5081 22.1465 33.639 21.7976L34.9149 18.3949L21.7219 24.3932C21.5538 24.4697 21.3723 24.5123 21.1878 24.5186C21.0032 24.525 20.8192 24.4948 20.6463 24.43C20.4734 24.3652 20.315 24.2669 20.1801 24.1408C20.0452 24.0147 19.9365 23.8632 19.8602 23.6951L17.1534 17.7371L4.49007 23.4932L3.21409 26.8959L33.4746 38.2435C33.8235 38.3743 34.1062 38.6384 34.2604 38.9777C34.4146 39.317 34.4277 39.7036 34.2968 40.0525Z" fill="#82FB8E" fill-opacity="0.33"/>
</svg>
