<svg width="43" height="34" viewBox="0 0 43 34" fill="none" xmlns="http://www.w3.org/2000/svg">
<path d="M30.8596 31.0409L29.6563 30.4165L42.1437 6.35033C42.3093 6.03119 42.3414 5.65934 42.2328 5.31658C42.1242 4.97383 41.8839 4.68824 41.5648 4.52265L33.1416 0.152048C32.8225 -0.0135451 32.4506 -0.0455795 32.1079 0.0629925C31.7651 0.171565 31.4795 0.41185 31.3139 0.730987L28.1921 6.74754L20.9722 3.00131C20.6531 2.83572 20.2812 2.80368 19.9385 2.91225C19.5957 3.02083 19.3101 3.26111 19.1446 3.58025L16.0227 9.5968L10.0061 6.47494C9.68701 6.30935 9.31516 6.27731 8.9724 6.38589C8.62965 6.49446 8.34406 6.73474 8.17847 7.05388L3.18349 16.6804L1.98019 16.056C1.66105 15.8904 1.2892 15.8584 0.946442 15.9669C0.603686 16.0755 0.318097 16.3158 0.152504 16.6349C-0.0130898 16.9541 -0.0451253 17.3259 0.0634475 17.6687C0.17202 18.0114 0.412304 18.297 0.731442 18.4626L29.6109 33.4475C29.93 33.6131 30.3019 33.6451 30.6446 33.5366C30.9874 33.428 31.273 33.1877 31.4386 32.8686C31.6042 32.5494 31.6362 32.1776 31.5276 31.8348C31.419 31.4921 31.1788 31.2065 30.8596 31.0409ZM33.0962 3.18304L39.1127 6.3049L27.2497 29.1678L21.2331 26.0459L33.0962 3.18304ZM20.9268 6.0323L26.9433 9.15416L18.8265 24.7972L12.81 21.6753L20.9268 6.0323ZM9.96071 9.50593L14.774 12.0034L10.4034 20.4266L5.59011 17.9291L9.96071 9.50593Z" fill="#82FB8E" fill-opacity="0.33"/>
</svg>
