<svg width="40" height="35" viewBox="0 0 40 35" fill="none" xmlns="http://www.w3.org/2000/svg">
<path d="M32.0986 4.77507L4.47353 9.93466C4.1072 10.0031 3.72869 9.92318 3.42127 9.71252C3.11386 9.50187 2.90272 9.17772 2.83429 8.81139C2.76587 8.44506 2.84578 8.06655 3.05644 7.75914C3.26709 7.45172 3.59124 7.24058 3.95757 7.17216L27.4389 2.7865C27.8052 2.71808 28.1293 2.50694 28.34 2.19952C28.5506 1.89211 28.6305 1.5136 28.5621 1.14727C28.4937 0.780941 28.2826 0.456794 27.9751 0.24614C27.6677 0.0354854 27.2892 -0.0444206 26.9229 0.0239998L3.44161 4.40965C2.34262 4.61492 1.37017 5.24834 0.738211 6.17059C0.106248 7.09284 -0.133471 8.22836 0.0717907 9.32735L4.19947 31.4274C4.40473 32.5264 5.03815 33.4988 5.9604 34.1308C6.88265 34.7627 8.01817 35.0025 9.11716 34.7972L36.7422 29.6376C37.4749 29.5008 38.1232 29.0785 38.5445 28.4636C38.9658 27.8488 39.1256 27.0918 38.9887 26.3591L35.377 7.02161C35.2402 6.28895 34.8179 5.64066 34.2031 5.21935C33.5882 4.79804 32.8312 4.63823 32.0986 4.77507ZM36.2262 26.8751L8.6012 32.0347C8.23487 32.1031 7.85636 32.0232 7.54895 31.8126C7.24153 31.6019 7.03039 31.2778 6.96197 30.9114L3.56405 12.7186C4.03693 12.793 4.51906 12.7857 4.98949 12.6972L32.6145 7.53757L36.2262 26.8751ZM26.0039 18.0636C25.9273 17.6538 25.974 17.2305 26.1381 16.8473C26.3021 16.4641 26.5761 16.1381 26.9254 15.9105C27.2747 15.683 27.6836 15.5642 28.1004 15.5691C28.5173 15.5739 28.9233 15.7023 29.2672 15.938C29.611 16.1736 29.8773 16.5059 30.0323 16.8929C30.1873 17.2799 30.2241 17.7041 30.138 18.112C30.0519 18.5199 29.8468 18.893 29.5486 19.1843C29.2504 19.4756 28.8725 19.672 28.4627 19.7485C27.9132 19.8511 27.3455 19.7313 26.8843 19.4153C26.4232 19.0993 26.1065 18.6131 26.0039 18.0636Z" fill="#82FB8E" fill-opacity="0.33"/>
</svg>
