<svg width="33" height="33" viewBox="0 0 33 33" fill="none" xmlns="http://www.w3.org/2000/svg">
<path d="M21.449 16.4021C21.449 17.4003 21.153 18.3761 20.5984 19.206C20.0439 20.0359 19.2557 20.6828 18.3335 21.0648C17.4113 21.4468 16.3965 21.5467 15.4176 21.352C14.4386 21.1573 13.5393 20.6766 12.8335 19.9708C12.1277 19.265 11.647 18.3657 11.4523 17.3867C11.2576 16.4077 11.3575 15.393 11.7395 14.4708C12.1215 13.5486 12.7683 12.7604 13.5983 12.2059C14.4282 11.6513 15.404 11.3553 16.4021 11.3553C17.7406 11.3553 19.0243 11.887 19.9708 12.8335C20.9172 13.78 21.449 15.0636 21.449 16.4021ZM32.8043 8.83192V23.9724C32.8018 26.314 31.8705 28.559 30.2147 30.2147C28.559 31.8705 26.314 32.8018 23.9724 32.8043H8.83192C6.49032 32.8018 4.24534 31.8705 2.58958 30.2147C0.933813 28.559 0.00250484 26.314 0 23.9724V8.83192C0.00250484 6.49032 0.933813 4.24534 2.58958 2.58958C4.24534 0.933813 6.49032 0.00250484 8.83192 0H23.9724C26.314 0.00250484 28.559 0.933813 30.2147 2.58958C31.8705 4.24534 32.8018 6.49032 32.8043 8.83192ZM23.9724 16.4021C23.9724 14.9049 23.5284 13.4413 22.6966 12.1964C21.8647 10.9514 20.6824 9.98115 19.2991 9.40817C17.9159 8.8352 16.3937 8.68529 14.9253 8.97738C13.4568 9.26948 12.1079 9.99048 11.0492 11.0492C9.99048 12.1079 9.26948 13.4568 8.97738 14.9253C8.68529 16.3937 8.8352 17.9159 9.40817 19.2991C9.98115 20.6824 10.9514 21.8647 12.1964 22.6966C13.4413 23.5284 14.9049 23.9724 16.4021 23.9724C18.4093 23.9703 20.3336 23.172 21.7528 21.7528C23.172 20.3336 23.9703 18.4093 23.9724 16.4021ZM27.7575 6.93937C27.7575 6.56506 27.6465 6.19915 27.4385 5.88792C27.2306 5.57669 26.935 5.33412 26.5892 5.19088C26.2434 5.04763 25.8628 5.01015 25.4957 5.08318C25.1286 5.1562 24.7914 5.33645 24.5267 5.60113C24.262 5.86581 24.0818 6.20303 24.0087 6.57015C23.9357 6.93727 23.9732 7.3178 24.1164 7.66362C24.2597 8.00944 24.5022 8.30502 24.8135 8.51297C25.1247 8.72093 25.4906 8.83192 25.8649 8.83192C26.3669 8.83192 26.8482 8.63253 27.2032 8.27761C27.5581 7.92269 27.7575 7.44131 27.7575 6.93937Z" fill="white"/>
</svg>
