<svg width="33" height="33" viewBox="0 0 33 33" fill="none" xmlns="http://www.w3.org/2000/svg">
<path d="M30.2809 0H2.52341C1.85416 0 1.21232 0.265858 0.739089 0.739089C0.265858 1.21232 0 1.85416 0 2.52341V30.2809C0 30.9501 0.265858 31.592 0.739089 32.0652C1.21232 32.5384 1.85416 32.8043 2.52341 32.8043H30.2809C30.9501 32.8043 31.592 32.5384 32.0652 32.0652C32.5384 31.592 32.8043 30.9501 32.8043 30.2809V2.52341C32.8043 1.85416 32.5384 1.21232 32.0652 0.739089C31.592 0.265858 30.9501 0 30.2809 0ZM11.3553 23.9724C11.3553 24.307 11.2224 24.6279 10.9858 24.8645C10.7492 25.1011 10.4283 25.2341 10.0936 25.2341C9.759 25.2341 9.43808 25.1011 9.20147 24.8645C8.96485 24.6279 8.83192 24.307 8.83192 23.9724V13.8787C8.83192 13.5441 8.96485 13.2232 9.20147 12.9866C9.43808 12.75 9.759 12.617 10.0936 12.617C10.4283 12.617 10.7492 12.75 10.9858 12.9866C11.2224 13.2232 11.3553 13.5441 11.3553 13.8787V23.9724ZM10.0936 11.3553C9.71932 11.3553 9.35341 11.2443 9.04218 11.0364C8.73095 10.8284 8.48838 10.5328 8.34513 10.187C8.20189 9.84121 8.16441 9.46068 8.23744 9.09356C8.31046 8.72644 8.49071 8.38922 8.75539 8.12454C9.02007 7.85986 9.35729 7.67961 9.72441 7.60659C10.0915 7.53356 10.4721 7.57104 10.8179 7.71428C11.1637 7.85753 11.4593 8.1001 11.6672 8.41133C11.8752 8.72256 11.9862 9.08846 11.9862 9.46278C11.9862 9.96471 11.7868 10.4461 11.4319 10.801C11.0769 11.1559 10.5956 11.3553 10.0936 11.3553ZM25.2341 23.9724C25.2341 24.307 25.1011 24.6279 24.8645 24.8645C24.6279 25.1011 24.307 25.2341 23.9724 25.2341C23.6377 25.2341 23.3168 25.1011 23.0802 24.8645C22.8436 24.6279 22.7107 24.307 22.7107 23.9724V18.2947C22.7107 17.4581 22.3783 16.6558 21.7868 16.0643C21.1953 15.4728 20.393 15.1404 19.5564 15.1404C18.7198 15.1404 17.9175 15.4728 17.326 16.0643C16.7345 16.6558 16.4021 17.4581 16.4021 18.2947V23.9724C16.4021 24.307 16.2692 24.6279 16.0326 24.8645C15.796 25.1011 15.4751 25.2341 15.1404 25.2341C14.8058 25.2341 14.4849 25.1011 14.2483 24.8645C14.0117 24.6279 13.8787 24.307 13.8787 23.9724V13.8787C13.8803 13.5697 13.9952 13.272 14.2018 13.042C14.4083 12.8121 14.692 12.666 14.9991 12.6314C15.3062 12.5967 15.6153 12.676 15.8678 12.8542C16.1204 13.0324 16.2987 13.2971 16.369 13.598C17.2225 13.019 18.2177 12.6834 19.2475 12.6273C20.2774 12.5712 21.3031 12.7967 22.2144 13.2795C23.1258 13.7624 23.8884 14.4843 24.4205 15.3679C24.9525 16.2515 25.2337 17.2633 25.2341 18.2947V23.9724Z" fill="white"/>
</svg>
