<svg width="186" height="79" viewBox="0 0 186 79" fill="none" xmlns="http://www.w3.org/2000/svg">
<rect x="1.62168" y="32.8443" width="182.165" height="44.4799" stroke="#6CFF7B" stroke-width="3.24296"/>
<path d="M15.1443 65.4268H9.63035L16.7923 44.2001H23.6225L30.7845 65.4268H25.2705L20.2851 49.5482H20.1193L15.1443 65.4268ZM14.4084 57.0729H25.9338V60.97H14.4084V57.0729ZM33.0698 65.4268V44.2001H41.8383C43.4275 44.2001 44.7991 44.511 45.953 45.1329C47.1139 45.7479 48.0087 46.6081 48.6374 47.7137C49.2662 48.8123 49.5806 50.0906 49.5806 51.5486C49.5806 53.0134 49.2593 54.2952 48.6167 55.3938C47.981 56.4856 47.0724 57.332 45.8908 57.9332C44.7093 58.5343 43.3066 58.8349 41.6828 58.8349H36.2725V54.7927H40.7293C41.5032 54.7927 42.1492 54.658 42.6674 54.3885C43.1926 54.119 43.5899 53.7424 43.8594 53.2587C44.1289 52.7682 44.2636 52.1981 44.2636 51.5486C44.2636 50.8922 44.1289 50.3256 43.8594 49.8488C43.5899 49.3651 43.1926 48.992 42.6674 48.7294C42.1423 48.4669 41.4963 48.3356 40.7293 48.3356H38.2003V65.4268H33.0698ZM52.1096 65.4268V44.2001H60.878C62.4673 44.2001 63.8388 44.511 64.9928 45.1329C66.1536 45.7479 67.0484 46.6081 67.6772 47.7137C68.306 48.8123 68.6204 50.0906 68.6204 51.5486C68.6204 53.0134 68.2991 54.2952 67.6565 55.3938C67.0208 56.4856 66.1121 57.332 64.9306 57.9332C63.749 58.5343 62.3463 58.8349 60.7226 58.8349H55.3122V54.7927H59.769C60.5429 54.7927 61.189 54.658 61.7072 54.3885C62.2323 54.119 62.6296 53.7424 62.8991 53.2587C63.1686 52.7682 63.3033 52.1981 63.3033 51.5486C63.3033 50.8922 63.1686 50.3256 62.8991 49.8488C62.6296 49.3651 62.2323 48.992 61.7072 48.7294C61.182 48.4669 60.536 48.3356 59.769 48.3356H57.2401V65.4268H52.1096ZM71.1493 65.4268V44.2001H79.9178C81.507 44.2001 82.8786 44.4869 84.0325 45.0604C85.1933 45.627 86.0881 46.4423 86.7169 47.5064C87.3457 48.5636 87.6601 49.8177 87.6601 51.2687C87.6601 52.7405 87.3388 53.9912 86.6962 55.0207C86.0536 56.0434 85.1415 56.8242 83.9599 57.3631C82.7784 57.8952 81.3792 58.1612 79.7623 58.1612H74.2172V54.119H78.8087C79.5826 54.119 80.2287 54.0188 80.7469 53.8184C81.2721 53.6111 81.6694 53.3002 81.9388 52.8856C82.2083 52.4641 82.3431 51.9252 82.3431 51.2687C82.3431 50.6123 82.2083 50.0699 81.9388 49.6415C81.6694 49.2062 81.2721 48.8814 80.7469 48.6672C80.2218 48.4461 79.5757 48.3356 78.8087 48.3356H76.2798V65.4268H71.1493ZM83.0997 55.7255L88.3856 65.4268H82.7887L77.6065 55.7255H83.0997ZM110.509 54.8134C110.509 57.1489 110.06 59.1285 109.161 60.7523C108.263 62.3761 107.047 63.6095 105.513 64.4525C103.986 65.2955 102.272 65.717 100.372 65.717C98.4652 65.717 96.7481 65.292 95.2211 64.4421C93.694 63.5922 92.4814 62.3588 91.5831 60.742C90.6917 59.1182 90.2461 57.142 90.2461 54.8134C90.2461 52.4779 90.6917 50.4983 91.5831 48.8745C92.4814 47.2507 93.694 46.0174 95.2211 45.1744C96.7481 44.3314 98.4652 43.9099 100.372 43.9099C102.272 43.9099 103.986 44.3314 105.513 45.1744C107.047 46.0174 108.263 47.2507 109.161 48.8745C110.06 50.4983 110.509 52.4779 110.509 54.8134ZM105.264 54.8134C105.264 53.4315 105.067 52.2637 104.674 51.3102C104.287 50.3567 103.727 49.6346 102.994 49.144C102.269 48.6534 101.395 48.4081 100.372 48.4081C99.3565 48.4081 98.4824 48.6534 97.75 49.144C97.0176 49.6346 96.4544 50.3567 96.0606 51.3102C95.6736 52.2637 95.4802 53.4315 95.4802 54.8134C95.4802 56.1954 95.6736 57.3631 96.0606 58.3167C96.4544 59.2702 97.0176 59.9923 97.75 60.4829C98.4824 60.9734 99.3565 61.2187 100.372 61.2187C101.395 61.2187 102.269 60.9734 102.994 60.4829C103.727 59.9923 104.287 59.2702 104.674 58.3167C105.067 57.3631 105.264 56.1954 105.264 54.8134ZM117.07 44.2001L121.817 59.747H121.993L126.74 44.2001H132.482L125.32 65.4268H118.49L111.328 44.2001H117.07ZM134.767 65.4268V44.2001H149.568V48.3667H139.898V52.7198H148.811V56.8967H139.898V61.2602H149.568V65.4268H134.767ZM160.627 65.4268H152.781V44.2001H160.616C162.779 44.2001 164.641 44.625 166.203 45.4749C167.771 46.3179 168.981 47.534 169.83 49.1233C170.68 50.7056 171.105 52.5989 171.105 54.8031C171.105 57.0142 170.68 58.9143 169.83 60.5036C168.987 62.0928 167.782 63.3124 166.213 64.1623C164.645 65.0053 162.783 65.4268 160.627 65.4268ZM157.911 61.0529H160.43C161.618 61.0529 162.624 60.8525 163.446 60.4518C164.275 60.0441 164.9 59.3842 165.322 58.4721C165.75 57.5531 165.964 56.3301 165.964 54.8031C165.964 53.276 165.75 52.0599 165.322 51.1547C164.893 50.2426 164.261 49.5862 163.425 49.1855C162.596 48.7778 161.573 48.5739 160.357 48.5739H157.911V61.0529Z" fill="#6CFF7B"/>
<path d="M11.3274 22V5.71865H12.814V20.6644H20.5731V22H11.3274ZM36.6339 13.8593C36.6339 15.5553 36.3318 17.0313 35.7276 18.2874C35.1234 19.5382 34.2913 20.5081 33.2313 21.1971C32.1766 21.8808 30.9629 22.2226 29.5903 22.2226C28.2176 22.2226 27.0013 21.8808 25.9413 21.1971C24.8866 20.5081 24.0572 19.5382 23.453 18.2874C22.8541 17.0313 22.5546 15.5553 22.5546 13.8593C22.5546 12.1633 22.8541 10.69 23.453 9.43919C24.0572 8.18311 24.8892 7.21322 25.9492 6.52953C27.0092 5.84054 28.2229 5.49605 29.5903 5.49605C30.9629 5.49605 32.1766 5.84054 33.2313 6.52953C34.2913 7.21322 35.1234 8.18311 35.7276 9.43919C36.3318 10.69 36.6339 12.1633 36.6339 13.8593ZM35.187 13.8593C35.187 12.4018 34.9432 11.1537 34.4556 10.1149C33.968 9.07084 33.3029 8.27321 32.4602 7.72201C31.6175 7.17082 30.6609 6.89523 29.5903 6.89523C28.525 6.89523 27.571 7.17082 26.7283 7.72201C25.8856 8.27321 25.2178 9.06819 24.7249 10.107C24.2373 11.1458 23.9936 12.3965 23.9936 13.8593C23.9936 15.3168 24.2373 16.5649 24.7249 17.6037C25.2125 18.6425 25.8777 19.4401 26.7204 19.9966C27.563 20.5478 28.5197 20.8234 29.5903 20.8234C30.6609 20.8234 31.6175 20.5478 32.4602 19.9966C33.3082 19.4454 33.976 18.6505 34.4635 17.6117C34.9511 16.5676 35.1923 15.3168 35.187 13.8593ZM39.4879 22H37.9297L43.8524 5.71865H45.4423L51.365 22H49.8068L44.703 7.65047H44.5917L39.4879 22ZM40.6088 15.7593H48.6859V17.0949H40.6088V15.7593ZM66.8355 5.71865V22H65.3886L55.7692 8.36596H55.642V22H54.1554V5.71865H55.5943L65.2455 19.3686H65.3727V5.71865H66.8355ZM77.4605 22V5.71865H82.7153C83.8707 5.71865 84.8353 5.92799 85.6091 6.34669C86.3882 6.76008 86.9738 7.33512 87.366 8.07181C87.7635 8.8032 87.9623 9.64324 87.9623 10.5919C87.9623 11.5406 87.7635 12.378 87.366 13.1041C86.9738 13.8302 86.3908 14.3973 85.617 14.8054C84.8433 15.2135 83.884 15.4175 82.7392 15.4175H78.2634V14.0581H82.6994C83.5474 14.0581 84.2523 13.9176 84.8141 13.6367C85.3812 13.3558 85.8025 12.9557 86.0781 12.4363C86.359 11.9169 86.4995 11.3021 86.4995 10.5919C86.4995 9.88173 86.359 9.26164 86.0781 8.73165C85.7972 8.19636 85.3733 7.78296 84.8062 7.49147C84.2444 7.19997 83.5342 7.05422 82.6756 7.05422H78.9471V22H77.4605ZM84.6392 14.6543L88.646 22H86.9288L82.9618 14.6543H84.6392ZM91.5834 22V5.71865H101.028V7.05422H93.0701V13.1836H100.527V14.5192H93.0701V20.6644H101.187V22H91.5834ZM110.973 16.9121H112.627L114.71 19.6707L115.059 20.1318L117.619 23.5264H115.966L114.09 21.0222L113.756 20.577L110.973 16.9121ZM118.223 13.8593C118.223 15.5553 117.921 17.0313 117.317 18.2874C116.713 19.5382 115.881 20.5081 114.821 21.1971C113.766 21.8808 112.553 22.2226 111.18 22.2226C109.807 22.2226 108.591 21.8808 107.531 21.1971C106.476 20.5081 105.647 19.5382 105.043 18.2874C104.444 17.0313 104.144 15.5553 104.144 13.8593C104.144 12.1633 104.444 10.69 105.043 9.43919C105.647 8.18311 106.479 7.21322 107.539 6.52953C108.599 5.84054 109.813 5.49605 111.18 5.49605C112.553 5.49605 113.766 5.84054 114.821 6.52953C115.881 7.21322 116.713 8.18311 117.317 9.43919C117.921 10.69 118.223 12.1633 118.223 13.8593ZM116.777 13.8593C116.777 12.4018 116.533 11.1537 116.045 10.1149C115.558 9.07084 114.892 8.27321 114.05 7.72201C113.207 7.17082 112.25 6.89523 111.18 6.89523C110.115 6.89523 109.161 7.17082 108.318 7.72201C107.475 8.27321 106.807 9.06819 106.315 10.107C105.827 11.1458 105.583 12.3965 105.583 13.8593C105.583 15.3168 105.827 16.5649 106.315 17.6037C106.802 18.6425 107.467 19.4401 108.31 19.9966C109.153 20.5478 110.109 20.8234 111.18 20.8234C112.25 20.8234 113.207 20.5478 114.05 19.9966C114.898 19.4454 115.566 18.6505 116.053 17.6117C116.541 16.5676 116.782 15.3168 116.777 13.8593ZM132.67 5.71865H134.157V16.4987C134.157 17.6064 133.897 18.5975 133.378 19.4719C132.859 20.3411 132.135 21.0275 131.208 21.531C130.285 22.0291 129.212 22.2782 127.988 22.2782C126.769 22.2782 125.696 22.0265 124.768 21.523C123.841 21.0195 123.117 20.3332 122.598 19.464C122.079 18.5948 121.819 17.6064 121.819 16.4987V5.71865H123.305V16.3953C123.305 17.2592 123.499 18.0304 123.886 18.7087C124.273 19.3818 124.816 19.9118 125.516 20.2987C126.22 20.6856 127.045 20.8791 127.988 20.8791C128.931 20.8791 129.755 20.6856 130.46 20.2987C131.165 19.9118 131.708 19.3818 132.09 18.7087C132.477 18.0304 132.67 17.2592 132.67 16.3953V5.71865ZM138.478 22V5.71865H147.922V7.05422H139.964V13.1836H147.421V14.5192H139.964V20.6644H148.081V22H138.478ZM160.61 9.78898C160.52 8.8827 160.12 8.16191 159.41 7.62662C158.7 7.09132 157.807 6.82368 156.731 6.82368C155.973 6.82368 155.305 6.95353 154.727 7.21322C154.155 7.47292 153.704 7.83331 153.376 8.29441C153.053 8.7502 152.891 9.26959 152.891 9.85258C152.891 10.2819 152.984 10.6582 153.169 10.9815C153.355 11.3048 153.604 11.583 153.916 11.8162C154.234 12.0441 154.584 12.2402 154.966 12.4045C155.353 12.5688 155.742 12.7066 156.134 12.8179L157.852 13.3108C158.371 13.4539 158.89 13.6367 159.41 13.8593C159.929 14.0819 160.404 14.3628 160.833 14.702C161.267 15.0359 161.615 15.4466 161.874 15.9342C162.139 16.4165 162.272 16.9969 162.272 17.6753C162.272 18.5445 162.047 19.3262 161.596 20.0205C161.146 20.7148 160.499 21.266 159.656 21.6741C158.814 22.0768 157.804 22.2782 156.627 22.2782C155.52 22.2782 154.558 22.0954 153.742 21.7297C152.925 21.3587 152.284 20.8473 151.818 20.1954C151.351 19.5435 151.089 18.7882 151.031 17.9297H152.557C152.61 18.571 152.822 19.1142 153.193 19.5594C153.564 20.0046 154.046 20.3438 154.64 20.577C155.233 20.8049 155.896 20.9188 156.627 20.9188C157.438 20.9188 158.159 20.7837 158.79 20.5134C159.426 20.2378 159.924 19.8562 160.284 19.3686C160.65 18.8757 160.833 18.3033 160.833 17.6514C160.833 17.1002 160.69 16.6391 160.404 16.2681C160.117 15.8918 159.717 15.5765 159.203 15.3221C158.694 15.0677 158.103 14.8425 157.43 14.6464L155.483 14.074C154.205 13.6924 153.214 13.165 152.509 12.4919C151.804 11.8189 151.452 10.9603 151.452 9.91618C151.452 9.0417 151.685 8.27321 152.152 7.61072C152.623 6.94293 153.259 6.42353 154.06 6.05254C154.865 5.67625 155.769 5.4881 156.77 5.4881C157.783 5.4881 158.678 5.6736 159.458 6.04459C160.237 6.41559 160.854 6.92703 161.31 7.57892C161.771 8.22551 162.017 8.9622 162.049 9.78898H160.61ZM164.863 7.05422V5.71865H176.669V7.05422H171.51V22H170.023V7.05422H164.863Z" fill="white"/>
</svg>
