<svg width="53" height="51" viewBox="0 0 53 51" fill="none" xmlns="http://www.w3.org/2000/svg">
<path d="M26.2373 0C26.9974 0 27.7407 0.226107 28.3721 0.649414C29.0034 1.07277 29.4946 1.67468 29.7832 2.37793L35.1201 15.2832L48.9424 16.3984C49.6973 16.4593 50.4173 16.7426 51.0117 17.2119C51.6062 17.6813 52.0489 18.3168 52.2832 19.0371C52.5197 19.7612 52.536 20.5391 52.3301 21.2725C52.1241 22.0059 51.7049 22.6621 51.126 23.1572L40.583 32.2539L43.8066 45.8584C43.9826 46.5958 43.9363 47.3688 43.6738 48.0801C43.4113 48.7914 42.944 49.4091 42.3311 49.8555C41.7182 50.3018 40.987 50.5573 40.2295 50.5889C39.472 50.6204 38.7221 50.4269 38.0742 50.0332L26.2363 42.752L14.4062 50.0332C13.7587 50.4316 13.0068 50.6289 12.2471 50.5996C11.4872 50.5702 10.7527 50.3155 10.1377 49.8682C9.52272 49.4208 9.054 48.8008 8.79199 48.0869C8.53008 47.3731 8.48641 46.5973 8.66602 45.8584L11.8779 32.2568L1.33594 23.1602C0.761461 22.6641 0.345737 22.0093 0.141602 21.2783C-0.0625008 20.5474 -0.0458181 19.7726 0.188477 19.0508C0.422852 18.3289 0.864374 17.6914 1.45898 17.2197C2.0536 16.748 2.77496 16.4624 3.53125 16.3984L17.3604 15.2812L22.6924 2.37793C22.981 1.67468 23.4722 1.07277 24.1035 0.649414C24.7347 0.226231 25.4774 8.10802e-05 26.2373 0Z" fill="#C87110"/>
</svg>
