<svg width="19" height="21" viewBox="0 0 19 21" fill="none" xmlns="http://www.w3.org/2000/svg">
<path d="M1.49418 0C1.75962 0 2.02072 0.0704182 2.25003 0.204102L17.9834 9.20703V9.20605C18.2155 9.33333 18.4091 9.52127 18.544 9.74902C18.6787 9.97671 18.75 10.2364 18.75 10.501C18.75 10.7655 18.6787 11.0253 18.544 11.2529C18.4091 11.4807 18.2155 11.6686 17.9834 11.7959L2.25394 20.7959C2.02458 20.9296 1.76359 21 1.49808 21C1.23261 21 0.971551 20.9296 0.742222 20.7959C0.516184 20.6671 0.328693 20.48 0.198277 20.2549C0.0679093 20.0298 -0.000708778 19.7738 3.46328e-05 19.5137V1.49023C-0.0017511 1.22976 0.0655486 0.972908 0.195347 0.74707C0.325153 0.521228 0.513317 0.333675 0.739292 0.204102C0.968454 0.070587 1.22895 4.74989e-05 1.49418 0ZM1.50003 18.4395L9.43949 10.502L1.50003 2.56445V18.4395ZM3.9766 18.085L12.2735 13.3359L10.5 11.5625L3.9766 18.085ZM11.5606 10.502L13.6231 12.5645L17.2256 10.502L13.6231 8.43945L11.5606 10.502ZM10.5 9.44141L12.2744 7.66797L3.97464 2.91797L10.5 9.44141Z" fill="black"/>
</svg>
