<svg width="64" height="62" viewBox="0 0 64 62" fill="none" xmlns="http://www.w3.org/2000/svg">
<path d="M56.261 20.021C56.7821 20.3118 57.1661 20.7977 57.329 21.3718C57.4919 21.9458 57.4202 22.561 57.1295 23.0822L54.9364 27.0127L60.8318 30.3021C61.874 30.8837 62.6433 31.8551 62.9691 33.0033C63.2949 34.1515 63.1503 35.3821 62.5688 36.4244L60.3762 40.3541C58.9222 42.9598 56.4928 44.8819 53.6222 45.6964C50.7516 46.5108 47.6744 46.1519 45.0686 44.6979L44.1058 44.1607C37.6346 50.1934 28.0541 52.0657 19.7662 48.4817L16.4192 54.4802L22.3146 57.7697C22.8357 58.0604 23.2197 58.5463 23.3826 59.1204C23.5455 59.6945 23.4739 60.3097 23.1831 60.8308C22.8923 61.3519 22.4064 61.736 21.8323 61.8988C21.2582 62.0617 20.6431 61.9901 20.1219 61.6993L4.40153 52.9279C3.88051 52.637 3.49638 52.1511 3.33352 51.5771C3.17068 51.003 3.24231 50.3878 3.53301 49.8667C3.82375 49.3456 4.30979 48.9616 4.88378 48.7987C5.45781 48.6358 6.07307 48.7075 6.59417 48.9982L12.4895 52.2876L15.8323 46.2967C12.2213 43.7742 9.42842 40.2484 7.7992 36.156C6.17012 32.0637 5.77555 27.5837 6.66469 23.2698L5.7684 22.7697C4.47819 22.0498 3.34226 21.0827 2.42574 19.9239C1.5092 18.765 0.829905 17.4363 0.42662 16.0149C-0.387724 13.1444 -0.0279867 10.0674 1.42589 7.46175L3.61853 3.53208C4.20011 2.48979 5.17229 1.72098 6.32054 1.39519C7.46854 1.06959 8.69873 1.21369 9.74084 1.79503L15.6362 5.08446L17.8293 1.15393C18.1201 0.632875 18.606 0.248794 19.1801 0.0859131C19.7541 -0.076958 20.3694 -0.00527702 20.8905 0.285407L56.261 20.021ZM20.6627 5.3114L12.9875 19.067C10.6613 23.2362 10.0875 28.1588 11.3906 32.7518C12.6937 37.3448 15.7673 41.2326 19.9364 43.5589C28.5689 48.2918 39.6834 45.1135 44.5516 36.3891L52.1035 22.8544L20.6627 5.3114ZM7.5482 5.72471L5.35557 9.65439C4.48327 11.2177 4.26806 13.0641 4.75661 14.7864C5.24529 16.5088 6.39807 17.9668 7.96151 18.8392L8.05703 18.8925C8.35861 18.2019 8.6924 17.5293 9.05783 16.8743L13.4436 9.01414L7.5482 5.72471ZM52.7438 30.9424L48.4812 38.5817C48.0726 39.3113 47.6245 40.0181 47.1389 40.6989L47.2617 40.7674C48.8252 41.6398 50.6713 41.8551 52.3937 41.3664C54.116 40.8777 55.5741 39.7249 56.4465 38.1615L58.6391 34.2318L52.7438 30.9424Z" fill="#2D8883"/>
</svg>
