<svg width="78" height="84" viewBox="0 0 78 84" fill="none" xmlns="http://www.w3.org/2000/svg">
<path d="M57.8047 0C58.6563 0 59.473 0.338316 60.0752 0.94043C60.6773 1.54258 61.0155 2.35938 61.0156 3.21094V6.42285H70.6504C72.3536 6.42292 73.987 7.09942 75.1914 8.30371C76.3959 9.5082 77.0732 11.1423 77.0732 12.8457V77.0723C77.0732 78.7757 76.3959 80.4098 75.1914 81.6143C73.987 82.8186 72.3536 83.495 70.6504 83.4951H6.42285C4.71963 83.4951 3.08627 82.8185 1.88184 81.6143C0.677344 80.4098 0 78.7757 0 77.0723V12.8457C0 11.1423 0.677344 9.5082 1.88184 8.30371C3.08627 7.09943 4.71962 6.42289 6.42285 6.42285H16.0566V3.21094C16.0568 2.35938 16.3959 1.54258 16.998 0.94043C17.6003 0.338358 18.417 0 19.2686 0C20.1201 3.6725e-05 20.9369 0.338304 21.5391 0.94043C22.1412 1.54258 22.4794 2.35938 22.4795 3.21094V6.42285H54.5938V3.21094C54.5939 2.35938 54.932 1.54258 55.5342 0.94043C56.1364 0.338315 56.9531 6.49373e-07 57.8047 0ZM6.42285 12.8457V77.0723H70.6504V12.8457H61.0156V16.0566C61.0156 16.9083 60.6774 17.7249 60.0752 18.3271C59.4729 18.9294 58.6564 19.2686 57.8047 19.2686C56.953 19.2686 56.1364 18.9294 55.5342 18.3271C54.932 17.7249 54.5938 16.9083 54.5938 16.0566V12.8457H22.4795V16.0566C22.4795 16.9083 22.1412 17.7249 21.5391 18.3271C20.9368 18.9294 20.1202 19.2685 19.2686 19.2686C18.4169 19.2686 17.6003 18.9294 16.998 18.3271C16.3958 17.7249 16.0566 16.9083 16.0566 16.0566V12.8457H6.42285ZM38.5361 25.6865C39.164 25.6865 39.7784 25.8705 40.3027 26.2158C40.8271 26.5612 41.2394 27.053 41.4873 27.6299L46.0752 38.2676L58.0537 39.1943C58.6911 39.2446 59.2993 39.484 59.7998 39.8818C60.3003 40.2797 60.6705 40.8181 60.8633 41.4277C61.056 42.0374 61.0627 42.6914 60.8818 43.3047C60.7009 43.918 60.3404 44.4636 59.8477 44.8711L50.8076 52.333L53.5615 63.4561C53.7125 64.0694 53.6791 64.7141 53.4658 65.3086C53.2525 65.903 52.8686 66.4214 52.3623 66.7988C51.856 67.1762 51.2497 67.3961 50.6191 67.4307C49.9887 67.4652 49.3619 67.3129 48.8174 66.9932L38.5361 60.9434L28.2559 66.9932C27.7113 67.3129 27.0846 67.4652 26.4541 67.4307C25.8236 67.3961 25.2173 67.1761 24.7109 66.7988C24.2046 66.4214 23.8207 65.903 23.6074 65.3086C23.3941 64.7141 23.3608 64.0694 23.5117 63.4561L26.2656 52.333L17.2256 44.8711C16.7329 44.4636 16.3723 43.918 16.1914 43.3047C16.0105 42.6914 16.0172 42.0374 16.21 41.4277C16.4027 40.8182 16.773 40.2797 17.2734 39.8818C17.774 39.484 18.3821 39.2446 19.0195 39.1943L30.998 38.2676L35.5859 27.6299C35.8339 27.053 36.2461 26.5612 36.7705 26.2158C37.2947 25.8706 37.9085 25.6866 38.5361 25.6865ZM36.1279 42.5947C35.8958 43.1312 35.5217 43.5941 35.0459 43.9336C34.5699 44.2731 34.0097 44.4767 33.4268 44.5215L27.4492 44.9834L31.9092 48.668C32.3763 49.0529 32.7247 49.5622 32.915 50.1367C33.1054 50.7113 33.1303 51.3283 32.9854 51.916L31.5801 57.584L36.9072 54.4482C37.4009 54.1576 37.9633 54.004 38.5361 54.0039C39.1092 54.0039 39.6722 54.1575 40.166 54.4482L45.4932 57.584L44.0879 51.916C43.943 51.3284 43.9669 50.7112 44.1572 50.1367C44.3476 49.5621 44.6969 49.0529 45.1641 48.668L49.624 44.9834L43.6465 44.5215C43.0635 44.4767 42.5034 44.2731 42.0273 43.9336C41.5515 43.5941 41.1774 43.1312 40.9453 42.5947L38.5361 37.0068L36.1279 42.5947Z" fill="#82FB8E"/>
</svg>
