<svg width="24" height="20" viewBox="0 0 24 20" fill="none" xmlns="http://www.w3.org/2000/svg">
<path d="M4.44043 16.6648C4.55025 16.6798 4.6565 16.7159 4.75195 16.7722C4.84738 16.8286 4.93094 16.904 4.99707 16.9929C5.06325 17.0821 5.11127 17.1839 5.1377 17.2918C5.16408 17.3995 5.16876 17.5114 5.15137 17.6209C5.13391 17.7305 5.09474 17.8362 5.03613 17.9304L4.05176 19.5974C3.99612 19.6916 3.92235 19.7739 3.83496 19.8396C3.74745 19.9054 3.64704 19.953 3.54102 19.9802C3.32706 20.0352 3.10038 20.0027 2.91016 19.8904C2.71979 19.7779 2.58146 19.5948 2.52637 19.3806C2.4713 19.1665 2.50377 18.9391 2.61621 18.7488L3.60156 17.0818C3.65589 16.9851 3.72886 16.8999 3.81641 16.8318C3.9039 16.7638 4.00432 16.7141 4.11133 16.6853C4.21842 16.6565 4.33055 16.6499 4.44043 16.6648ZM13.4824 7.50367C13.5923 7.48875 13.7045 7.49637 13.8115 7.52516C13.9185 7.554 14.0189 7.6036 14.1064 7.67164C14.194 7.73976 14.267 7.82489 14.3213 7.92164L17.5225 13.3386H22.5029C22.7237 13.3387 22.9356 13.4267 23.0918 13.5828C23.2481 13.7391 23.3359 13.9516 23.3359 14.1726C23.3359 14.3935 23.248 14.6052 23.0918 14.7615C22.9356 14.9177 22.7238 15.0055 22.5029 15.0056H18.5088L20.7197 18.7488C20.8322 18.9391 20.8646 19.1665 20.8096 19.3806C20.7545 19.5948 20.6162 19.7779 20.4258 19.8904C20.2356 20.0027 20.0089 20.0352 19.7949 19.9802C19.5809 19.9252 19.3966 19.7877 19.2842 19.5974L12.8867 8.7693C12.8282 8.67512 12.7889 8.57019 12.7715 8.4607C12.7541 8.3512 12.7588 8.23931 12.7852 8.1316C12.8116 8.02378 12.8596 7.92191 12.9258 7.83277C12.9919 7.74374 13.0754 7.66851 13.1709 7.61207C13.2664 7.5557 13.3726 7.51866 13.4824 7.50367ZM8.74414 0.115978C8.93436 0.00368413 9.16106 -0.0288054 9.375 0.026134C9.48103 0.0534142 9.58143 0.100981 9.66895 0.166759C9.75634 0.232467 9.8301 0.314825 9.88574 0.408946L11.668 3.43043L13.4502 0.413829C13.5626 0.22346 13.7468 0.0851352 13.9609 0.0300402C14.1748 -0.024866 14.4016 0.00765618 14.5918 0.119884C14.7821 0.2323 14.9205 0.415613 14.9756 0.62965C15.0307 0.843778 14.9982 1.07112 14.8857 1.26149L7.74902 13.3386H13.1758C13.3966 13.3387 13.6085 13.4267 13.7646 13.5828C13.9209 13.7391 14.0088 13.9516 14.0088 14.1726C14.0087 14.3935 13.9209 14.6052 13.7646 14.7615C13.6084 14.9177 13.3967 15.0055 13.1758 15.0056H0.833008C0.61212 15.0055 0.40034 14.9177 0.244141 14.7615C0.087959 14.6052 5.13116e-05 14.3935 0 14.1726C0 13.9516 0.0878429 13.7391 0.244141 13.5828C0.400322 13.4267 0.612206 13.3387 0.833008 13.3386H5.81348L10.7002 5.0652L8.4502 1.25758C8.33775 1.06722 8.30527 0.839862 8.36035 0.625743C8.41545 0.411615 8.55377 0.228431 8.74414 0.115978Z" fill="black"/>
</svg>
