<svg width="59" height="43" viewBox="0 0 59 43" fill="none" xmlns="http://www.w3.org/2000/svg">
<path d="M29.2168 11.6768C31.6595 11.6769 34.0411 12.4419 36.0263 13.8653C38.0116 15.2887 39.5011 17.2987 40.2851 19.6124C41.0691 21.926 41.1084 24.4276 40.3974 26.7647C39.6865 29.1015 38.2606 31.1567 36.3213 32.6417C39.7682 34.1285 42.6469 36.6824 44.5351 39.9268C44.676 40.1485 44.7708 40.3962 44.8135 40.6553C44.8561 40.9145 44.8457 41.1795 44.7832 41.4346C44.7207 41.6897 44.6077 41.9296 44.4502 42.1397C44.2926 42.3499 44.0936 42.5258 43.8662 42.6573C43.6389 42.7887 43.3876 42.8736 43.1269 42.9053C42.8662 42.937 42.6009 42.915 42.3486 42.8419C42.0965 42.7686 41.8614 42.6448 41.6582 42.4786C41.455 42.3123 41.2877 42.1067 41.166 41.8741C39.939 39.7965 38.1912 38.075 36.0957 36.879C34.0003 35.683 31.6295 35.0538 29.2168 35.0538C26.804 35.0538 24.4324 35.6829 22.3369 36.879C20.2416 38.075 18.4945 39.7967 17.2676 41.8741C17.1458 42.1068 16.9777 42.3123 16.7744 42.4786C16.5711 42.6449 16.3363 42.7687 16.084 42.8419C15.8317 42.915 15.5673 42.937 15.3066 42.9053C15.0459 42.8737 14.7938 42.7887 14.5664 42.6573C14.3391 42.5258 14.1409 42.3498 13.9834 42.1397C13.8258 41.9296 13.7119 41.6898 13.6494 41.4346C13.5869 41.1796 13.5765 40.9144 13.6191 40.6553C13.6617 40.3962 13.7566 40.1484 13.8974 39.9268C15.7858 36.6823 18.6653 34.1284 22.1123 32.6417C20.1728 31.1567 18.7471 29.1016 18.0361 26.7647C17.3251 24.4276 17.3644 21.926 18.1484 19.6124C18.9324 17.2988 20.4219 15.2887 22.4072 13.8653C24.3924 12.442 26.774 11.6768 29.2168 11.6768ZM30.7363 15.7295C29.2251 15.429 27.6588 15.5833 26.2353 16.1729C24.8118 16.7626 23.5943 17.7609 22.7383 19.042C21.8822 20.3233 21.4258 21.8303 21.4258 23.3711C21.4259 25.4373 22.247 27.4189 23.708 28.8799C25.169 30.3408 27.1506 31.1622 29.2168 31.1622C30.7576 31.1621 32.2638 30.7047 33.5449 29.8487C34.826 28.9927 35.8243 27.776 36.414 26.3526C37.0037 24.929 37.158 23.3619 36.8574 21.8506C36.5568 20.3395 35.8151 18.9509 34.7256 17.8614C33.636 16.7719 32.2475 16.0301 30.7363 15.7295ZM12.8945 0.0283761C14.4055 -0.0872697 15.9226 0.151804 17.3252 0.725642C18.7279 1.29955 19.9779 2.19232 20.9746 3.33404C21.9712 4.47571 22.6872 5.83456 23.0664 7.30181C23.1955 7.80209 23.1207 8.33329 22.8584 8.77838C22.5959 9.22346 22.1673 9.54664 21.667 9.67584C21.1665 9.80498 20.6346 9.73037 20.1894 9.46783C19.7443 9.20529 19.4221 8.77583 19.293 8.27545C19.0197 7.21744 18.4546 6.25729 17.6631 5.50396C16.8715 4.75067 15.8847 4.23426 14.8144 4.01373C13.7441 3.79319 12.6333 3.87689 11.6084 4.25592C10.5834 4.635 9.68488 5.29431 9.01561 6.15826C8.34643 7.02214 7.93316 8.05651 7.82225 9.14361C7.71135 10.2308 7.90761 11.3274 8.38865 12.3086C8.86971 13.2899 9.61658 14.1171 10.5439 14.6954C11.4712 15.2734 12.5421 15.58 13.6347 15.5801C14.1513 15.5802 14.6465 15.7852 15.0117 16.1504C15.3769 16.5157 15.582 17.0109 15.582 17.5274C15.582 18.0439 15.3769 18.5391 15.0117 18.9044C14.6464 19.2696 14.1513 19.4756 13.6347 19.4756C11.668 19.468 9.72691 19.9222 7.96776 20.8018C6.20875 21.6813 4.68074 22.9613 3.50682 24.5391C3.19655 24.9524 2.73425 25.2261 2.22264 25.2989C1.71112 25.3716 1.19148 25.238 0.778303 24.9278C0.365207 24.6176 0.0924347 24.156 0.019514 23.6446C-0.0533118 23.133 0.0793662 22.6125 0.389631 22.1993C2.11511 19.8884 4.41573 18.0687 7.06151 16.921C5.94375 15.8975 5.07952 14.6278 4.53905 13.212C3.99859 11.7961 3.79679 10.2736 3.94822 8.76568C4.0997 7.25772 4.6008 5.80556 5.41209 4.52545C6.22337 3.24541 7.32214 2.17232 8.62108 1.39166C9.92007 0.610964 11.3834 0.144043 12.8945 0.0283761ZM41.1074 0.725642C42.5101 0.151737 44.0279 -0.0872912 45.539 0.0283761C47.05 0.144099 48.5136 0.61103 49.8125 1.39166C51.1113 2.17234 52.2103 3.24545 53.0215 4.52545C53.8327 5.80554 54.3339 7.25775 54.4853 8.76568C54.6368 10.2736 54.434 11.7962 53.8935 13.212C53.3531 14.6277 52.4896 15.8976 51.3721 16.921C54.0203 18.0676 56.3223 19.8876 58.0498 22.1993C58.2032 22.4044 58.3148 22.6385 58.3779 22.8868C58.441 23.135 58.4548 23.3931 58.418 23.6465C58.3811 23.9001 58.2943 24.1443 58.1631 24.3643C58.0319 24.5842 57.8587 24.7759 57.6533 24.9288C57.4487 25.0822 57.2155 25.1944 56.9678 25.2579C56.7201 25.3213 56.462 25.335 56.209 25.2989C55.9559 25.2627 55.7122 25.1772 55.4922 25.0469C55.2721 24.9166 55.0802 24.7437 54.9267 24.5391C53.7529 22.9613 52.2247 21.6814 50.4658 20.8018C48.7068 19.9223 46.7654 19.4681 44.7988 19.4756C44.4158 19.4756 44.0408 19.3622 43.7217 19.1504C43.4027 18.9388 43.1528 18.6379 43.0039 18.2852C42.9028 18.0456 42.8506 17.7875 42.8506 17.5274C42.8506 17.2674 42.9029 17.0101 43.0039 16.7706C43.1528 16.4177 43.4025 16.1161 43.7217 15.9044C44.0408 15.6926 44.4158 15.5802 44.7988 15.5801C45.8915 15.58 46.9624 15.2735 47.8896 14.6954C48.817 14.1171 49.5638 13.2899 50.0449 12.3086C50.5259 11.3274 50.7222 10.2307 50.6113 9.14361C50.5004 8.05643 50.0862 7.02219 49.417 6.15826C48.7478 5.29443 47.85 4.63501 46.8252 4.25592C45.8002 3.87683 44.6885 3.79317 43.6181 4.01373C42.548 4.23433 41.561 4.75065 40.7695 5.50396C39.978 6.25726 39.4139 7.21749 39.1406 8.27545C39.0767 8.52321 38.9644 8.75655 38.8105 8.96099C38.6566 9.16545 38.4636 9.33783 38.2431 9.46783C38.0228 9.59775 37.7787 9.68307 37.5254 9.71881C37.2721 9.75451 37.0142 9.73973 36.7666 9.67584C36.5188 9.61189 36.2855 9.49966 36.081 9.34576C35.8767 9.19189 35.7051 8.99871 35.5752 8.77838C35.4453 8.55814 35.36 8.31473 35.3242 8.06158C35.2885 7.80818 35.3022 7.5496 35.3662 7.30181C35.7454 5.83452 36.4623 4.47574 37.459 3.33404C38.4555 2.19249 39.7049 1.29951 41.1074 0.725642Z" fill="#82FB8E"/>
</svg>
