<svg width="77" height="77" viewBox="0 0 77 77" fill="none" xmlns="http://www.w3.org/2000/svg">
<path d="M38.3584 0C45.0778 0.00250629 51.6795 1.77027 57.501 5.12598C63.3223 8.48168 68.1604 13.3079 71.5303 19.1211C74.9 24.9343 76.6832 31.5308 76.7021 38.25C76.7211 44.9694 74.9748 51.576 71.6377 57.4082C68.3006 63.2404 63.49 68.094 57.6875 71.4824C51.885 74.8708 45.2935 76.6755 38.5742 76.7158C31.855 76.7561 25.2431 75.0304 19.4004 71.7119C13.5577 68.3934 8.68911 63.5983 5.28223 57.8066C5.0835 57.4713 4.95283 57.0998 4.89844 56.7139C4.84409 56.3279 4.86747 55.9348 4.96582 55.5576C5.06422 55.1805 5.23572 54.8259 5.47168 54.5156C5.70773 54.2053 6.00351 53.9446 6.34082 53.749L35.4082 36.8164V2.9502C35.4083 2.1678 35.7192 1.41751 36.2725 0.864258C36.8257 0.311022 37.576 7.1279e-05 38.3584 0ZM41.3203 38.5059C41.3197 39.0232 41.1827 39.5316 40.9238 39.9795C40.6649 40.4273 40.2927 40.799 39.8447 41.0576L11.9912 57.2861C15.0065 61.4622 18.9679 64.8654 23.5508 67.2168C28.1335 69.568 33.2077 70.8016 38.3584 70.8154C46.7149 70.8229 54.7529 67.6066 60.7979 61.8369C66.8426 56.0673 70.4288 48.1884 70.8105 39.8408C71.1922 31.4932 68.3397 23.3196 62.8467 17.0225C57.3534 10.7252 49.6426 6.78924 41.3203 6.03418V38.5059ZM25.5752 2.21289C26.0187 2.05655 26.4932 2.00809 26.959 2.07227C27.4249 2.13653 27.8692 2.31147 28.2539 2.58203C28.6386 2.85271 28.953 3.21203 29.1709 3.62891C29.3888 4.04582 29.5042 4.50907 29.5068 4.97949V31.5352C29.5069 32.0531 29.3702 32.5622 29.1113 33.0107C28.8524 33.4593 28.4798 33.8319 28.0312 34.0908L5.0166 47.3867C4.56799 47.6455 4.0589 47.7815 3.54102 47.7812C3.11418 47.7823 2.69232 47.6896 2.30566 47.5088C1.87656 47.3112 1.50103 47.0135 1.21094 46.6406C0.920903 46.2678 0.724724 45.8306 0.638672 45.3662C-1.02082 36.3826 0.578624 27.1013 5.14941 19.1914C9.7203 11.2814 16.963 5.26094 25.5752 2.21289ZM23.6055 9.44922C18.2803 12.1723 13.8101 16.3125 10.6865 21.4131C7.56293 26.5137 5.9066 32.3774 5.90137 38.3584C5.90137 38.9042 5.90204 39.4647 5.94629 40.0215L23.6055 29.8311V9.44922Z" fill="#2D8883"/>
</svg>
