<svg width="54" height="40" viewBox="0 0 54 40" fill="none" xmlns="http://www.w3.org/2000/svg">
<path d="M19.5635 0C20.6556 0.000109137 21.7033 0.433776 22.4756 1.20605C23.2479 1.97834 23.6815 3.026 23.6816 4.11816V26.7705C23.6782 30.0464 22.375 33.1875 20.0586 35.5039C17.7423 37.82 14.6018 39.1225 11.3262 39.126C10.7802 39.126 10.2563 38.9094 9.87012 38.5234C9.48393 38.1372 9.2666 37.6126 9.2666 37.0664C9.26672 36.5204 9.48404 35.9964 9.87012 35.6104C10.2563 35.2244 10.7802 35.0078 11.3262 35.0078C13.5107 35.0078 15.6057 34.1394 17.1504 32.5947C18.6951 31.05 19.5635 28.9551 19.5635 26.7705V24.7109H4.11816C3.02599 24.7108 1.97834 24.2772 1.20605 23.5049C0.43379 22.7325 1.96983e-05 21.685 0 20.5928V4.11816C9.94979e-05 3.02599 0.433767 1.97834 1.20605 1.20605C1.97834 0.433767 3.02599 9.95801e-05 4.11816 0H19.5635ZM49.4229 0C50.515 9.89107e-05 51.5627 0.433767 52.335 1.20605C53.1072 1.97834 53.5409 3.02599 53.541 4.11816V26.7705C53.5376 30.0464 52.2344 33.1875 49.918 35.5039C47.6017 37.82 44.4612 39.1225 41.1855 39.126C40.6396 39.126 40.1156 38.9094 39.7295 38.5234C39.3433 38.1372 39.126 37.6126 39.126 37.0664C39.1261 36.5204 39.3434 35.9964 39.7295 35.6104C40.1157 35.2244 40.6395 35.0078 41.1855 35.0078C43.3701 35.0078 45.465 34.1394 47.0098 32.5947C48.5545 31.05 49.4229 28.9551 49.4229 26.7705V24.7109H33.9775C32.8854 24.7108 31.8377 24.2772 31.0654 23.5049C30.2932 22.7325 29.8594 21.685 29.8594 20.5928V4.11816C29.8595 3.026 30.2932 1.97834 31.0654 1.20605C31.8377 0.433776 32.8854 0.000109806 33.9775 0H49.4229Z" fill="#D2F0EE"/>
</svg>
