<svg width="77" height="70" viewBox="0 0 77 70" fill="none" xmlns="http://www.w3.org/2000/svg">
<path d="M39.5049 0C40.6984 0 41.8435 0.474457 42.6875 1.31836L48.7598 7.39062C50.7288 7.34801 52.6861 7.70453 54.5137 8.43848C56.3411 9.17237 58.001 10.2687 59.3936 11.6611C60.7862 13.0538 61.8832 14.7144 62.6172 16.542C63.3511 18.3695 63.7077 20.327 63.665 22.2959L76.1016 34.7324C76.3846 35.0104 76.5891 35.3587 76.6943 35.7412C76.7994 36.1234 76.802 36.5268 76.7012 36.9102C76.6002 37.2938 76.399 37.6446 76.1191 37.9258C75.8393 38.2068 75.4895 38.4091 75.1064 38.5117L67.6006 40.5518L65.5605 48.0586C65.4579 48.4415 65.2555 48.7905 64.9746 49.0703C64.6935 49.3502 64.3426 49.5514 63.959 49.6523C63.5754 49.7532 63.1715 49.7507 62.7891 49.6455C62.4068 49.5402 62.0591 49.3356 61.7812 49.0527L57.0078 44.2793L33.1406 68.1465C32.2966 68.9904 31.1515 69.4648 29.958 69.4648C28.7647 69.4647 27.6202 68.9903 26.7764 68.1465L1.31836 42.6885C0.474369 41.8445 0 40.6994 0 39.5059C0 38.3123 0.474369 37.1672 1.31836 36.3232L36.3232 1.31836C37.1671 0.474615 38.3116 0.000100235 39.5049 0ZM4.5 39.5059L29.958 64.9639L53.8252 41.0967L49.3447 36.6162C45.9386 36.6779 42.6176 35.5481 39.9551 33.4229C37.2926 31.2976 35.4555 28.3097 34.7607 24.9746C34.0661 21.6396 34.5571 18.1668 36.1494 15.1553C37.7418 12.1437 40.3359 9.78201 43.4834 8.47852L39.5049 4.50098L4.5 39.5059ZM36.3232 37.2559C36.9199 37.2559 37.4921 37.4931 37.9141 37.915C38.336 38.337 38.5732 38.9091 38.5732 39.5059C38.5732 40.1026 38.336 40.6747 37.9141 41.0967L28.3672 50.6436C27.9452 51.0655 27.3731 51.3027 26.7764 51.3027C26.1796 51.3027 25.6066 51.0656 25.1846 50.6436C24.7628 50.2216 24.5264 49.6493 24.5264 49.0527C24.5264 48.4561 24.7628 47.8839 25.1846 47.4619L34.7314 37.915C35.1534 37.493 35.7265 37.2559 36.3232 37.2559ZM29.958 30.8906C30.5548 30.8906 31.1278 31.1279 31.5498 31.5498C31.9718 31.9718 32.209 32.5448 32.209 33.1416C32.2089 33.7382 31.9717 34.3105 31.5498 34.7324L22.0029 44.2793C21.581 44.7012 21.0087 44.9384 20.4121 44.9385C19.8153 44.9385 19.2423 44.7013 18.8203 44.2793C18.3984 43.8574 18.1612 43.2851 18.1611 42.6885C18.1611 42.0917 18.3983 41.5187 18.8203 41.0967L28.3672 31.5498C28.7891 31.128 29.3614 30.8907 29.958 30.8906ZM62.5771 27.5723C61.8435 29.3588 60.7621 30.982 59.3965 32.3477C58.0308 33.7133 56.4077 34.7947 54.6211 35.5283L62.2227 43.1299L63.583 38.126C63.686 37.7481 63.8861 37.4029 64.1631 37.126C64.44 36.8491 64.7843 36.6489 65.1621 36.5459L70.166 35.1855L62.5771 27.5723ZM51.0273 12.0723C49.0632 11.6816 47.027 11.882 45.1768 12.6484C43.3266 13.4149 41.7454 14.7128 40.6328 16.3779C39.5203 18.043 38.9259 20.0004 38.9258 22.0029C38.9258 24.0056 39.5202 25.9637 40.6328 27.6289C41.7454 29.294 43.3266 30.592 45.1768 31.3584C47.027 32.1248 49.0632 32.3252 51.0273 31.9346C52.9916 31.5439 54.7958 30.5792 56.2119 29.1631C57.1522 28.2228 57.8984 27.1064 58.4072 25.8779C58.916 24.6495 59.1777 23.3325 59.1777 22.0029C59.1777 20.6733 58.916 19.3563 58.4072 18.1279C57.8984 16.8995 57.1521 15.783 56.2119 14.8428C54.7958 13.4268 52.9914 12.4629 51.0273 12.0723Z" fill="#2D8883"/>
</svg>
