<svg width="78" height="86" viewBox="0 0 78 86" fill="none" xmlns="http://www.w3.org/2000/svg">
<path d="M73.8645 30.9256C75.3743 31.7836 76.4813 33.2063 76.9422 34.8806C77.4031 36.5549 77.1801 38.3437 76.3222 39.8535L66.9564 56.3343C66.3333 57.4273 65.4085 58.3177 64.2926 58.8989C63.1765 59.4802 61.9165 59.7282 60.6636 59.6121L34.3113 57.2403C36.4282 60.7413 37.3246 64.8462 36.8592 68.9109C36.3938 72.9757 34.5927 76.7716 31.7391 79.7035C28.8855 82.6353 25.1403 84.5378 21.0897 85.1132C17.0391 85.6884 12.912 84.9037 9.35489 82.8823C5.79778 80.8609 3.01155 77.7168 1.43275 73.9423C-0.146045 70.1679 -0.429073 65.9764 0.629395 62.0243C1.68787 58.0722 4.02813 54.5827 7.28208 52.1025C10.536 49.6226 14.5205 48.2914 18.6117 48.3184L3.06128 26.8775C2.32037 25.8604 1.88857 24.651 1.81679 23.3947C1.74506 22.1386 2.03669 20.8884 2.65687 19.7937L12.0227 3.31293C12.8808 1.8032 14.3034 0.696153 15.9777 0.23526C17.652 -0.225633 19.4408 -0.00262445 20.9506 0.855272L73.8645 30.9256ZM28.2071 59.2236C26.71 57.2999 24.6759 55.8634 22.3623 55.0956C20.0487 54.3278 17.5588 54.2629 15.2085 54.9098C12.8581 55.5568 10.7523 56.8868 9.15748 58.7306C7.56261 60.5744 6.54993 62.8499 6.24822 65.2691C5.94658 67.6881 6.36943 70.1422 7.46254 72.3212C8.55568 74.5002 10.2698 76.3067 12.3892 77.5112C15.2314 79.1263 18.599 79.5461 21.7507 78.6786C24.9025 77.811 27.5807 75.7267 29.1959 72.8847C30.4004 70.7652 30.9498 68.3357 30.7738 65.9041C30.5977 63.4726 29.7044 61.1475 28.2071 59.2236ZM33.6459 15.1586L19.8156 39.4955L27.765 50.4548L41.2488 51.6757L55.0791 27.3388L33.6459 15.1586ZM17.9056 6.21356C17.8168 6.16327 17.7119 6.15084 17.6136 6.17792C17.5152 6.20499 17.4314 6.26935 17.381 6.35798L8.01517 22.8387C7.97889 22.903 7.9617 22.9763 7.96588 23.0499C7.97021 23.1239 7.99603 23.1961 8.03977 23.2559L15.843 34.012L28.2876 12.1136L17.9056 6.21356ZM60.4374 30.3839L47.9928 52.2823L61.227 53.4816C61.3008 53.4886 61.3761 53.4738 61.4418 53.4397C61.5073 53.4055 61.5614 53.3533 61.5981 53.2892L70.9639 36.8085C71.0141 36.7199 71.0272 36.6151 71.0004 36.517C70.9733 36.4186 70.9081 36.3344 70.8195 36.2839L60.4374 30.3839Z" fill="#2D8883"/>
</svg>
