<svg width="51" height="47" viewBox="0 0 51 47" fill="none" xmlns="http://www.w3.org/2000/svg">
<path d="M31.1641 0C32.7136 9.9002e-05 34.2002 0.615215 35.2959 1.71094C36.3916 2.80671 37.0068 4.29316 37.0068 5.84277V7.79102H46.7451C47.7783 7.79102 48.7695 8.2011 49.5 8.93164C50.2305 9.66218 50.6406 10.6534 50.6406 11.6865V42.8496C50.6406 43.8827 50.2305 44.874 49.5 45.6045C48.7695 46.3349 47.7782 46.7451 46.7451 46.7451H3.89551C2.86237 46.7451 1.87117 46.335 1.14062 45.6045C0.410115 44.874 0 43.8827 0 42.8496V11.6865C0 10.6535 0.410213 9.66216 1.14062 8.93164C1.87117 8.2011 2.86237 7.79102 3.89551 7.79102H13.6338V5.84277C13.6338 4.2931 14.2499 2.80672 15.3457 1.71094C16.4415 0.615231 17.9279 0 19.4775 0H31.1641ZM46.7451 26.2041C40.0745 29.4673 32.7463 31.1632 25.3203 31.1631C17.8943 31.1645 10.5662 29.469 3.89551 26.2061V42.8496H46.7451V26.2041ZM3.89551 11.6865V21.8193C10.47 25.3961 17.8358 27.2689 25.3203 27.2676C32.8052 27.2689 40.171 25.3947 46.7451 21.8164V11.6865H3.89551ZM29.2158 19.4766C29.7324 19.4766 30.2275 19.6826 30.5928 20.0479C30.958 20.4131 31.1641 20.9082 31.1641 21.4248C31.164 21.9413 30.958 22.4365 30.5928 22.8018C30.2275 23.167 29.7323 23.3721 29.2158 23.3721H21.4248C20.9083 23.372 20.4131 23.167 20.0479 22.8018C19.6826 22.4365 19.4776 21.9413 19.4775 21.4248C19.4775 20.9083 19.6827 20.4131 20.0479 20.0479C20.4131 19.6826 20.9083 19.4766 21.4248 19.4766H29.2158ZM19.4775 3.89551C18.961 3.89551 18.4649 4.10055 18.0996 4.46582C17.7346 4.83104 17.5293 5.32639 17.5293 5.84277V7.79102H33.1113V5.84277C33.1113 5.3263 32.9062 4.83105 32.541 4.46582C32.1758 4.10064 31.6805 3.89561 31.1641 3.89551H19.4775Z" fill="#82FB8E"/>
</svg>
