<svg width="63" height="41" viewBox="0 0 63 41" fill="none" xmlns="http://www.w3.org/2000/svg">
<path d="M60.7568 0C61.3535 4.32118e-05 61.9257 0.237276 62.3477 0.65918C62.7696 1.0811 63.0067 1.65333 63.0068 2.25V20.252C63.0068 20.8487 62.7696 21.4208 62.3477 21.8428C61.9257 22.2647 61.3536 22.5019 60.7568 22.502C60.1601 22.502 59.588 22.2647 59.166 21.8428C58.744 21.4208 58.5068 20.8487 58.5068 20.252V7.68164L35.3467 30.8447C35.1378 31.0539 34.8892 31.2198 34.6162 31.333C34.343 31.4462 34.0496 31.5049 33.7539 31.5049C33.4583 31.5048 33.1657 31.4462 32.8926 31.333C32.6194 31.2198 32.3711 31.0539 32.1621 30.8447L22.5029 21.1826L3.84375 39.8457C3.42152 40.2679 2.8481 40.5049 2.25098 40.5049C1.65398 40.5048 1.08133 40.2678 0.65918 39.8457C0.237039 39.4235 7.67051e-05 38.8509 0 38.2539C0 37.6568 0.23695 37.0834 0.65918 36.6611L20.9111 16.4102C21.1201 16.2009 21.3684 16.0341 21.6416 15.9209C21.9146 15.8078 22.2074 15.75 22.5029 15.75C22.7986 15.75 23.0921 15.8077 23.3652 15.9209C23.6383 16.0341 23.8858 16.201 24.0947 16.4102L33.7539 26.0713L55.3252 4.50098H42.7549C42.1583 4.50094 41.586 4.2636 41.1641 3.8418C40.7421 3.4198 40.5049 2.84679 40.5049 2.25C40.505 1.65333 40.7421 1.0811 41.1641 0.65918C41.586 0.237278 42.1582 3.91061e-05 42.7549 0H60.7568Z" fill="#2D8883"/>
</svg>
