<svg width="80" height="77" viewBox="0 0 80 77" fill="none" xmlns="http://www.w3.org/2000/svg">
<path d="M23.7256 2.78906C30.6499 -0.0201163 38.2488 -0.726888 45.5723 0.757812C52.8956 2.24252 59.6189 5.85274 64.9023 11.1367C67.7893 14.0593 70.3554 16.8675 72.8701 19.7822V12.6533C72.8702 11.8132 73.2047 11.0072 73.7988 10.4131C74.3929 9.81913 75.199 9.48535 76.0391 9.48535C76.8792 9.48545 77.6852 9.81902 78.2793 10.4131C78.8734 11.0072 79.207 11.8132 79.207 12.6533V28.4941C79.207 29.3342 78.8732 30.1403 78.2793 30.7344C77.6852 31.3284 76.8792 31.663 76.0391 31.6631H60.1982C59.358 31.6631 58.5521 31.3285 57.958 30.7344C57.3639 30.1402 57.0293 29.3344 57.0293 28.4941C57.0294 27.654 57.3639 26.848 57.958 26.2539C58.5521 25.66 59.3582 25.3262 60.1982 25.3262H69.3066C66.4593 21.9917 63.6357 18.8472 60.4121 15.584C56.0071 11.1854 50.4034 8.1824 44.3018 6.94922C38.2 5.71605 31.87 6.30767 26.1025 8.65039C20.3352 10.9931 15.3855 14.9833 11.8721 20.1221C8.3588 25.2608 6.43764 31.3206 6.34766 37.5449C6.25768 43.7692 8.00295 49.882 11.3662 55.1201C14.7296 60.3583 19.5616 64.4906 25.2588 66.999C30.9561 69.5075 37.2666 70.2818 43.4014 69.2256C49.536 68.1693 55.2236 65.3288 59.7539 61.0596C60.0565 60.7736 60.4128 60.5498 60.8018 60.4014C61.1909 60.2529 61.6062 60.1826 62.0225 60.1943C62.4386 60.2062 62.8486 60.2996 63.2285 60.4697C63.6085 60.6399 63.9513 60.8839 64.2373 61.1865C64.5231 61.489 64.7471 61.8446 64.8955 62.2334C65.0439 62.6225 65.1143 63.0378 65.1025 63.4541C65.0907 63.8703 64.9973 64.2802 64.8271 64.6602C64.657 65.0402 64.413 65.3829 64.1104 65.6689C58.6756 70.7973 51.8498 74.211 44.4863 75.4824C37.1231 76.7537 29.5485 75.8263 22.709 72.8174C15.8693 69.8083 10.0674 64.8507 6.0293 58.5635C1.99122 52.2761 -0.104614 44.9375 0.00390625 37.4658C0.11247 29.9943 2.42072 22.7201 6.63965 16.5527C10.8586 10.3854 16.8014 5.59822 23.7256 2.78906ZM38.0205 15.8213C38.8608 15.8213 39.6666 16.1559 40.2607 16.75C40.8548 17.3441 41.1885 18.15 41.1885 18.9902V36.2051L55.4932 44.7871C56.2136 45.2198 56.733 45.9209 56.9365 46.7363C57.1399 47.5517 57.0107 48.4143 56.5781 49.1348C56.1454 49.8552 55.4443 50.3746 54.6289 50.5781C53.8134 50.7816 52.95 50.6525 52.2295 50.2197L36.3887 40.7158C35.9199 40.4341 35.5319 40.0356 35.2627 39.5596C34.9935 39.0836 34.8524 38.5459 34.8525 37.999V18.9902C34.8525 18.1501 35.1863 17.3441 35.7803 16.75C36.3744 16.1559 37.1803 15.8213 38.0205 15.8213Z" fill="black"/>
</svg>
