<svg width="90" height="90" viewBox="0 0 90 90" fill="none" xmlns="http://www.w3.org/2000/svg">
<path d="M44.959 0C49.1496 6.8603e-07 52.2967 3.01444 55.0664 5.67578C56.6479 7.18903 58.282 8.75455 59.7109 9.34473C61.0235 9.89063 63.1993 9.92297 65.3066 9.95508C69.2245 10.0153 73.6641 10.0801 76.751 13.167C79.8379 16.2539 79.9027 20.6935 79.9629 24.6113C79.995 26.7187 80.0273 28.8945 80.5732 30.207C81.1634 31.64 82.7289 33.2701 84.2422 34.8516C86.9035 37.6253 89.918 40.7683 89.918 44.959C89.918 49.1496 86.9035 52.2927 84.2422 55.0664C82.7289 56.6479 81.1634 58.282 80.5732 59.7109C80.0273 61.0235 79.995 63.1993 79.9629 65.3066C79.9027 69.2245 79.8379 73.6641 76.751 76.751C73.6641 79.8379 69.2245 79.9027 65.3066 79.9629C63.1993 79.995 61.0235 80.0273 59.7109 80.5732C58.2779 81.1634 56.6479 82.7289 55.0664 84.2422C52.2927 86.9035 49.1496 89.918 44.959 89.918C40.7683 89.918 37.6213 86.9035 34.8516 84.2422C33.2701 82.7289 31.636 81.1634 30.207 80.5732C28.8945 80.0273 26.7187 79.995 24.6113 79.9629C20.6935 79.9027 16.2539 79.8379 13.167 76.751C10.0801 73.6641 10.0153 69.2245 9.95508 65.3066C9.92297 63.1993 9.89063 61.0235 9.34473 59.7109C8.75455 58.2779 7.18903 56.6479 5.67578 55.0664C3.01444 52.2927 6.86001e-07 49.1496 0 44.959C0 40.7683 3.01444 37.6253 5.67578 34.8516C7.18903 33.2701 8.75455 31.636 9.34473 30.207C9.89063 28.8945 9.92297 26.7187 9.95508 24.6113C10.0354 20.6935 10.0801 16.2539 13.167 13.167C16.2539 10.0801 20.6935 10.0153 24.6113 9.95508C26.7187 9.92297 28.9025 9.89063 30.207 9.34473C31.64 8.75455 33.2701 7.18903 34.8516 5.67578C37.6253 3.01444 40.7683 0 44.959 0ZM44.959 6.42285C43.3533 6.42285 41.302 8.3897 39.2949 10.3125C37.2878 12.2353 35.2121 14.2265 32.6631 15.2822C30.2145 16.2936 27.4165 16.3378 24.707 16.3779C21.8811 16.4181 18.9593 16.4666 17.7109 17.7109C16.4626 18.9553 16.4181 21.8972 16.3779 24.707C16.3378 27.4165 16.2936 30.2145 15.2822 32.6631C14.2265 35.2121 12.2273 37.2999 10.3125 39.2949C8.39773 41.29 6.42285 43.3533 6.42285 44.959C6.42285 46.5647 8.3897 48.616 10.3125 50.623C12.2353 52.6301 14.2265 54.7059 15.2822 57.2549C16.2936 59.7034 16.3378 62.5015 16.3779 65.2109C16.4181 68.0368 16.4666 70.9587 17.7109 72.207C18.9553 73.4554 21.8972 73.4999 24.707 73.54C27.4165 73.5802 30.2145 73.6243 32.6631 74.6357C35.2121 75.6915 37.3039 77.6907 39.2949 79.6055C41.286 81.5202 43.3533 83.4951 44.959 83.4951C46.5647 83.4951 48.616 81.5283 50.623 79.6055C52.6301 77.6827 54.7059 75.6915 57.2549 74.6357C59.7034 73.6243 62.5015 73.5802 65.2109 73.54C68.0368 73.4999 70.9587 73.4514 72.207 72.207C73.4554 70.9627 73.4999 68.0208 73.54 65.2109C73.5802 62.5015 73.6243 59.7034 74.6357 57.2549C75.6915 54.7059 77.6827 52.6301 79.6055 50.623C81.5202 48.628 83.4951 46.5647 83.4951 44.959C83.4951 43.3533 81.5283 41.302 79.6055 39.2949C77.6827 37.2878 75.6915 35.2121 74.6357 32.6631C73.6243 30.2145 73.5802 27.4165 73.54 24.707C73.4999 21.8811 73.4514 18.9593 72.207 17.7109C70.9627 16.4626 68.0208 16.4181 65.2109 16.3779C62.5015 16.3378 59.7034 16.2936 57.2549 15.2822C54.7059 14.2265 52.6141 12.2273 50.623 10.3125C48.632 8.39773 46.5647 6.42285 44.959 6.42285ZM57.8047 48.1699C60.3597 48.17 62.8105 49.1855 64.6172 50.9922C66.4238 52.7989 67.4385 55.2497 67.4385 57.8047C67.4384 59.71 66.873 61.573 65.8145 63.1572C64.7559 64.7413 63.2514 65.976 61.4912 66.7051C59.7308 67.4343 57.7936 67.6247 55.9248 67.2529C54.0562 66.8812 52.3395 65.9643 50.9922 64.6172C49.6448 63.2698 48.7272 61.5524 48.3555 59.6836C47.9838 57.8149 48.1742 55.8775 48.9033 54.1172C49.6325 52.3569 50.8679 50.8525 52.4521 49.7939C54.0364 48.7354 55.8993 48.1699 57.8047 48.1699ZM61.0156 25.6895C61.4375 25.6895 61.8554 25.7722 62.2451 25.9336C62.635 26.0951 62.9897 26.3315 63.2881 26.6299C63.5865 26.9283 63.8229 27.283 63.9844 27.6729C64.1458 28.0626 64.2285 28.4805 64.2285 28.9023C64.2285 29.3242 64.1458 29.742 63.9844 30.1318C63.823 30.5215 63.5863 30.8755 63.2881 31.1738L31.1738 63.2881C30.8755 63.5863 30.5215 63.823 30.1318 63.9844C29.742 64.1458 29.3242 64.2285 28.9023 64.2285C28.4805 64.2285 28.0626 64.1458 27.6729 63.9844C27.283 63.8229 26.9283 63.5865 26.6299 63.2881C26.3315 62.9897 26.0951 62.635 25.9336 62.2451C25.7722 61.8554 25.6895 61.4375 25.6895 61.0156C25.6895 60.5937 25.7721 60.1759 25.9336 59.7861C26.095 59.3964 26.3317 59.0424 26.6299 58.7441L58.7441 26.6299C59.0424 26.3317 59.3964 26.095 59.7861 25.9336C60.1759 25.7721 60.5937 25.6895 61.0156 25.6895ZM59.0332 54.8379C58.4464 54.5948 57.8007 54.5304 57.1777 54.6543C56.5548 54.7782 55.9823 55.0841 55.5332 55.5332C55.0841 55.9823 54.7782 56.5548 54.6543 57.1777C54.5304 57.8007 54.5948 58.4464 54.8379 59.0332C55.081 59.62 55.4924 60.1217 56.0205 60.4746C56.5486 60.8274 57.1696 61.0156 57.8047 61.0156C58.6563 61.0156 59.473 60.6774 60.0752 60.0752C60.6774 59.473 61.0156 58.6563 61.0156 57.8047C61.0156 57.1696 60.8274 56.5486 60.4746 56.0205C60.1217 55.4924 59.62 55.081 59.0332 54.8379ZM30.2344 22.665C32.1031 22.2934 34.0405 22.4837 35.8008 23.2129C37.5609 23.942 39.0655 25.1767 40.124 26.7607C41.1826 28.345 41.748 30.2079 41.748 32.1133C41.748 34.6684 40.7325 37.119 38.9258 38.9258C37.119 40.7325 34.6684 41.748 32.1133 41.748C30.2079 41.748 28.345 41.1826 26.7607 40.124C25.1767 39.0655 23.942 37.5609 23.2129 35.8008C22.4837 34.0405 22.2934 32.1031 22.665 30.2344C23.0368 28.3655 23.9534 26.6481 25.3008 25.3008C26.6481 23.9534 28.3655 23.0368 30.2344 22.665ZM32.7402 28.9639C32.1174 28.84 31.4715 28.9035 30.8848 29.1465C30.298 29.3895 29.7962 29.8011 29.4434 30.3291C29.0905 30.8571 28.9024 31.4782 28.9023 32.1133C28.9023 32.965 29.2405 33.7825 29.8428 34.3848C30.4449 34.9868 31.2618 35.3251 32.1133 35.3252C32.7483 35.3252 33.3694 35.1369 33.8975 34.7842C34.4255 34.4314 34.837 33.9294 35.0801 33.3428C35.3231 32.7561 35.3875 32.1101 35.2637 31.4873C35.1398 30.8645 34.8338 30.2919 34.3848 29.8428C33.9357 29.3937 33.3631 29.0878 32.7402 28.9639Z" fill="#82FB8E"/>
</svg>
