<svg width="67" height="54" viewBox="0 0 67 54" fill="none" xmlns="http://www.w3.org/2000/svg">
<path d="M66.2986 33.2379C66.4873 33.7677 66.4578 34.3509 66.2166 34.859C65.9753 35.3671 65.5421 35.7586 65.0123 35.9473L17.0638 53.0253C16.534 53.2141 15.9508 53.1846 15.4427 52.9433C14.9346 52.7021 14.5431 52.2689 14.3544 51.7391L0.122717 11.782C-0.0660067 11.2522 -0.0365136 10.669 0.204708 10.1609C0.44593 9.6528 0.879121 9.26132 1.40898 9.0726C1.93885 8.88387 2.52198 8.91337 3.0301 9.15459C3.53821 9.39581 3.9297 9.829 4.11842 10.3589L13.7862 37.5022L21.8791 20.4506C21.9985 20.1987 22.1664 19.9729 22.3731 19.7859C22.5798 19.599 22.8214 19.4547 23.0839 19.3612C23.3465 19.2676 23.6249 19.2268 23.9032 19.241C24.1816 19.2551 24.4544 19.324 24.7061 19.4437L33.6278 23.6812L42.0995 5.83617L36.9325 7.6765C36.4027 7.86523 35.8195 7.83574 35.3114 7.59451C34.8033 7.35329 34.4118 6.9201 34.2231 6.39024C34.0344 5.86037 34.0639 5.27724 34.3051 4.76912C34.5463 4.26101 34.9795 3.86953 35.5094 3.6808L45.4986 0.122878C46.0285 -0.0658444 46.6116 -0.0363522 47.1197 0.20487C47.6279 0.446091 48.0193 0.879283 48.2081 1.40915L51.766 11.3984C51.9547 11.9283 51.9252 12.5114 51.684 13.0195C51.4428 13.5276 51.0096 13.9191 50.4797 14.1078C49.9499 14.2966 49.3667 14.2671 48.8586 14.0259C48.3505 13.7846 47.959 13.3514 47.7703 12.8216L45.9299 7.65463L36.5507 27.4157C36.4313 27.6675 36.2635 27.8934 36.0568 28.0803C35.85 28.2672 35.6085 28.4116 35.3459 28.5051C35.0834 28.5986 34.805 28.6394 34.5266 28.6253C34.2483 28.6111 33.9755 28.5423 33.7238 28.4226L24.8021 24.185L15.7982 43.1511L17.6385 48.318L63.5891 31.9516C64.119 31.7629 64.7021 31.7924 65.2102 32.0336C65.7183 32.2748 66.1098 32.708 66.2986 33.2379Z" fill="#2D8883"/>
</svg>
