<svg width="29" height="29" viewBox="0 0 29 29" fill="none" xmlns="http://www.w3.org/2000/svg">
<path d="M10.876 0.427734C12.9912 -0.100252 15.1994 -0.139135 17.332 0.313477C19.4644 0.766117 21.4654 1.69859 23.1836 3.04004C24.9019 4.3816 26.2926 6.09665 27.249 8.05566C28.2054 10.0148 28.7032 12.1666 28.7041 14.3467C28.7046 16.8242 28.0636 19.2597 26.8438 21.416C25.6237 23.5726 23.8653 25.3766 21.7412 26.6523C19.6171 27.9281 17.1987 28.6324 14.7217 28.6963C12.2448 28.7601 9.79343 28.1821 7.60645 27.0176L2.9082 28.584C2.51917 28.7137 2.10129 28.7319 1.70215 28.6377C1.30301 28.5435 0.937444 28.3408 0.647461 28.0508C0.35749 27.7608 0.154738 27.3952 0.0605469 26.9961C-0.0335898 26.5972 -0.0153178 26.1799 0.114258 25.791L1.68066 21.0918C0.656929 19.167 0.0852396 17.0342 0.00878906 14.8555C-0.0676534 12.6768 0.353033 10.5093 1.23926 8.51758C2.12555 6.52585 3.45438 4.76206 5.12402 3.36035C6.79368 1.95867 8.76087 0.955734 10.876 0.427734ZM11.04 5.51465C9.5761 5.51465 8.1719 6.09573 7.13672 7.13086C6.10157 8.16601 5.52055 9.57026 5.52051 11.0342C5.52416 14.2538 6.80444 17.3406 9.08105 19.6172C11.3577 21.8938 14.4444 23.1751 17.6641 23.1787C18.3889 23.1787 19.1067 23.0352 19.7764 22.7578C20.446 22.4804 21.0548 22.0741 21.5674 21.5615C22.0799 21.049 22.4863 20.4402 22.7637 19.7705C23.041 19.1008 23.1836 18.383 23.1836 17.6582C23.1837 17.4531 23.1273 17.2516 23.0195 17.0771C22.9118 16.9028 22.7575 16.7617 22.5742 16.6699L18.1582 14.4619C17.9844 14.3753 17.7905 14.3365 17.5967 14.3486C17.4029 14.3608 17.2154 14.4237 17.0537 14.5312L15.0264 15.8838C14.0959 15.3722 13.3299 14.6063 12.8184 13.6758L14.1709 11.6484C14.2785 11.4868 14.3414 11.2993 14.3535 11.1055C14.3656 10.9119 14.3267 10.7186 14.2402 10.5449L12.0322 6.12891C11.9407 5.94413 11.7993 5.78822 11.624 5.67969C11.4487 5.57116 11.2463 5.51412 11.04 5.51465ZM11.9746 10.96L10.626 12.9668C10.5254 13.1178 10.4629 13.2911 10.4453 13.4717C10.4277 13.6525 10.4556 13.8352 10.5254 14.0029C11.3152 15.88 12.8085 17.3732 14.6855 18.1631C14.8538 18.2359 15.0381 18.2659 15.2207 18.25C15.4032 18.2341 15.5794 18.1731 15.7324 18.0723L17.7441 16.7236L20.918 18.3086C20.7675 19.0602 20.3609 19.7363 19.7676 20.2217C19.1742 20.7071 18.4307 20.9722 17.6641 20.9707C15.0298 20.9678 12.5043 19.9194 10.6416 18.0566C8.77891 16.1939 7.73144 13.6684 7.72852 11.0342C7.72834 10.2686 7.99327 9.52678 8.47852 8.93457C8.96376 8.34241 9.63898 7.93648 10.3896 7.78613L11.9746 10.96Z" fill="white"/>
</svg>
